M48
;DRILL file {KiCad 4.0.1-stable} date 2/26/2016 12:44:17 PM
;FORMAT={2:4/ absolute / inch / suppress leading zeros}
FMAT,2
INCH,TZ
T1C0.016
T2C0.039
T3C0.047
T4C0.110
T5C0.076
%
G90
G05
M72
T1
X51901Y-41188
X52000Y-45000
X52200Y-43600
X52350Y-44650
X52900Y-46050
X53200Y-44900
X53550Y-41409
X53550Y-45000
X53650Y-39500
X53900Y-42200
X54450Y-45650
X54540Y-41348
X55003Y-39597
X55194Y-43591
X55243Y-45016
X55250Y-40850
X55250Y-44650
X55387Y-43001
X55425Y-46292
X55453Y-42044
X55500Y-44300
X55878Y-39596
X55900Y-40900
X56079Y-44305
X56100Y-45200
X56195Y-41976
X56350Y-40878
X56517Y-42997
X56780Y-40850
X56850Y-45250
X57000Y-43402
X57000Y-39700
X57208Y-43720
X57320Y-40900
X57411Y-43299
X57800Y-40900
X57842Y-46243
X57966Y-42616
X58241Y-40355
X58500Y-46100
X58512Y-42407
X58589Y-43184
X58772Y-43758
X58800Y-37550
X59200Y-39700
X59511Y-48489
X59895Y-43752
X60202Y-46061
X60401Y-46851
X60600Y-39400
X60701Y-37800
X61200Y-46200
X63070Y-44500
X63200Y-37800
T2
X61900Y-41500
X61900Y-42500
X61900Y-43500
X61900Y-44500
T3
X50580Y-41701
X50580Y-44299
T4
X55910Y-38090
X55910Y-47910
T5
X59340Y-41590
X59340Y-44410
T0
M30
