G04 #@! TF.FileFunction,Soldermask,Top*
%FSLAX46Y46*%
G04 Gerber Fmt 4.6, Leading zero omitted, Abs format (unit mm)*
G04 Created by KiCad (PCBNEW 4.0.1-stable) date 4/22/2016 10:57:25 PM*
%MOMM*%
G01*
G04 APERTURE LIST*
%ADD10C,0.150000*%
%ADD11R,1.492200X1.187400*%
%ADD12C,2.330400*%
%ADD13R,1.650000X1.400000*%
%ADD14R,1.150000X1.200000*%
%ADD15R,1.000000X0.900000*%
%ADD16R,0.900000X1.000000*%
%ADD17R,1.162000X1.670000*%
%ADD18R,2.000000X2.300000*%
%ADD19C,2.000000*%
%ADD20R,1.750000X0.800000*%
%ADD21R,1.800000X2.000000*%
%ADD22R,4.200000X2.430000*%
%ADD23R,2.900000X2.400000*%
%ADD24O,2.900000X2.400000*%
%ADD25R,1.100000X1.700000*%
%ADD26R,0.720000X1.800000*%
%ADD27C,7.100000*%
G04 APERTURE END LIST*
D10*
D11*
X151028400Y-108623100D03*
X153619200Y-108623100D03*
X153619200Y-109816900D03*
X151028400Y-109816900D03*
D12*
X150723600Y-112801400D03*
X150723600Y-105638600D03*
D13*
X141350000Y-101450000D03*
X141350000Y-103450000D03*
D14*
X136850000Y-101950000D03*
X136850000Y-103450000D03*
D15*
X143450000Y-103900000D03*
X144550000Y-103900000D03*
D16*
X139550000Y-114850000D03*
X139550000Y-113750000D03*
D17*
X136200000Y-110161000D03*
X136200000Y-111939000D03*
X136200000Y-107639000D03*
X136200000Y-105861000D03*
D15*
X139450000Y-103600000D03*
X138350000Y-103600000D03*
D18*
X129973200Y-108020000D03*
X129973200Y-110420000D03*
D19*
X129973200Y-105920000D03*
X129973200Y-112520000D03*
D20*
X132648200Y-109220000D03*
X132648200Y-109870000D03*
X132648200Y-110520000D03*
X132648200Y-108570000D03*
X132648200Y-107920000D03*
D21*
X132648200Y-106020000D03*
X132648200Y-112420000D03*
D15*
X142600000Y-113950000D03*
X141500000Y-113950000D03*
D22*
X157500000Y-121000000D03*
D23*
X157480000Y-113200000D03*
D24*
X157480000Y-110660000D03*
X157480000Y-108120000D03*
X157480000Y-105580000D03*
D25*
X151200000Y-99850000D03*
X149300000Y-99850000D03*
X151200000Y-97200000D03*
X149300000Y-97200000D03*
D26*
X146925000Y-112225000D03*
X146925000Y-105475000D03*
X146275000Y-112225000D03*
X146275000Y-105475000D03*
X145625000Y-112225000D03*
X145625000Y-105475000D03*
X144975000Y-112225000D03*
X144975000Y-105475000D03*
X144325000Y-112225000D03*
X144325000Y-105475000D03*
X143675000Y-112225000D03*
X143675000Y-105475000D03*
X143025000Y-112225000D03*
X143025000Y-105475000D03*
X142375000Y-112225000D03*
X142375000Y-105475000D03*
X141725000Y-112225000D03*
X141725000Y-105475000D03*
X141075000Y-112225000D03*
X141075000Y-105475000D03*
X140425000Y-112225000D03*
X140425000Y-105475000D03*
X139775000Y-112225000D03*
X139775000Y-105475000D03*
X139125000Y-112225000D03*
X139125000Y-105475000D03*
X138475000Y-112225000D03*
X138475000Y-105475000D03*
D27*
X142011400Y-96748600D03*
X142011400Y-121691400D03*
M02*
