M48
;DRILL file {KiCad 4.0.1-stable} date 4/22/2016 10:57:29 PM
;FORMAT={2:4/ absolute / inch / suppress leading zeros}
FMAT,2
INCH,TZ
T1C0.016
T2C0.039
T3C0.047
T4C0.110
T5C0.076
%
G90
G05
M72
T1
X52815Y-43720
X52854Y-43346
X53228Y-44055
X53425Y-40138
X53622Y-41161
X53622Y-44587
X53878Y-39744
X53996Y-41673
X53996Y-44075
X54291Y-40138
X54528Y-45236
X55098Y-39941
X55276Y-43622
X56024Y-42323
X56144Y-43604
X56161Y-39941
X56170Y-40783
X56535Y-44862
X56614Y-42087
X57087Y-44744
X59646Y-40650
X61102Y-47638
X61181Y-41555
X62008Y-47047
X62008Y-48268
X62913Y-47638
X63209Y-41319
X63209Y-41949
T2
X62000Y-41567
X62000Y-42567
X62000Y-43567
X62000Y-44567
T3
X51171Y-41701
X51171Y-44299
T4
X55910Y-38090
X55910Y-47910
T5
X59340Y-41590
X59340Y-44410
T0
M30
