G04 #@! TF.FileFunction,Copper,L2,Bot,Signal*
%FSLAX46Y46*%
G04 Gerber Fmt 4.6, Leading zero omitted, Abs format (unit mm)*
G04 Created by KiCad (PCBNEW 4.0.1-stable) date 4/22/2016 10:57:25 PM*
%MOMM*%
G01*
G04 APERTURE LIST*
%ADD10C,0.150000*%
%ADD11C,1.600000*%
%ADD12R,2.500000X2.000000*%
%ADD13O,2.500000X2.000000*%
%ADD14C,6.700000*%
%ADD15C,0.762000*%
%ADD16C,0.254000*%
G04 APERTURE END LIST*
D10*
D11*
X129973200Y-105920000D03*
X129973200Y-112520000D03*
D12*
X157480000Y-113200000D03*
D13*
X157480000Y-110660000D03*
X157480000Y-108120000D03*
X157480000Y-105580000D03*
D14*
X142011400Y-96748600D03*
X142011400Y-121691400D03*
D15*
X143600000Y-113950000D03*
X160550000Y-104950000D03*
X160550000Y-106550000D03*
X142671126Y-103589010D03*
X139950000Y-101450000D03*
X142650000Y-101450000D03*
X137900000Y-101950000D03*
X136850000Y-100950000D03*
X135700000Y-101950000D03*
X137150000Y-105850000D03*
X136200000Y-104550000D03*
X137150000Y-111950000D03*
X136200000Y-113250000D03*
X135200000Y-111900000D03*
X142300000Y-107500000D03*
X142605029Y-110755029D03*
X140400000Y-110800000D03*
X138500000Y-114900000D03*
X145000000Y-113650000D03*
X134150000Y-111050000D03*
X134250000Y-110100000D03*
X155400000Y-105550000D03*
X159800000Y-121000000D03*
X155200000Y-121000000D03*
X157500000Y-122600000D03*
X157500000Y-119500000D03*
X151500000Y-103250000D03*
X143800000Y-106900000D03*
D16*
X148000000Y-113800000D02*
X155200000Y-121000000D01*
X151500000Y-103250000D02*
X158700000Y-103250000D01*
X158700000Y-103250000D02*
X159433631Y-103983631D01*
X159433631Y-103983631D02*
X159433631Y-110210369D01*
X159433631Y-110210369D02*
X158984000Y-110660000D01*
X158984000Y-110660000D02*
X157480000Y-110660000D01*
X143800000Y-106900000D02*
X145020000Y-108120000D01*
X145020000Y-108120000D02*
X157480000Y-108120000D01*
G36*
X161850000Y-125020000D02*
X131520000Y-125020000D01*
X131520000Y-114300000D01*
X131465954Y-114028295D01*
X131324614Y-113816764D01*
X131317451Y-113118303D01*
X149123123Y-113118303D01*
X149366225Y-113706656D01*
X149815976Y-114157193D01*
X150403904Y-114401322D01*
X151040503Y-114401877D01*
X151628856Y-114158775D01*
X152079393Y-113709024D01*
X152323522Y-113121096D01*
X152324077Y-112484497D01*
X152080975Y-111896144D01*
X151631224Y-111445607D01*
X151043296Y-111201478D01*
X150406697Y-111200923D01*
X149818344Y-111444025D01*
X149367807Y-111893776D01*
X149123678Y-112481704D01*
X149123123Y-113118303D01*
X131317451Y-113118303D01*
X131316513Y-113026896D01*
X131407950Y-112806691D01*
X131408448Y-112235813D01*
X131305853Y-111987513D01*
X131255737Y-107101208D01*
X142783824Y-107101208D01*
X142938175Y-107474766D01*
X143223731Y-107760821D01*
X143597018Y-107915824D01*
X143738317Y-107915947D01*
X144481185Y-108658816D01*
X144728396Y-108823997D01*
X145020000Y-108882000D01*
X155773609Y-108882000D01*
X156036951Y-109276120D01*
X156207385Y-109390000D01*
X156036951Y-109503880D01*
X155682528Y-110034313D01*
X155558071Y-110660000D01*
X155682528Y-111285687D01*
X155921778Y-111643751D01*
X155778559Y-111735910D01*
X155633569Y-111948110D01*
X155582560Y-112200000D01*
X155582560Y-114200000D01*
X155626838Y-114435317D01*
X155765910Y-114651441D01*
X155978110Y-114796431D01*
X156230000Y-114847440D01*
X158730000Y-114847440D01*
X158965317Y-114803162D01*
X159181441Y-114664090D01*
X159326431Y-114451890D01*
X159377440Y-114200000D01*
X159377440Y-112200000D01*
X159333162Y-111964683D01*
X159194090Y-111748559D01*
X159038998Y-111642589D01*
X159217414Y-111375571D01*
X159275605Y-111363996D01*
X159522815Y-111198815D01*
X159972446Y-110749185D01*
X160137627Y-110501974D01*
X160164197Y-110368396D01*
X160195631Y-110210369D01*
X160195631Y-103983631D01*
X160137627Y-103692026D01*
X159972446Y-103444816D01*
X159238815Y-102711185D01*
X158991605Y-102546004D01*
X158700000Y-102488000D01*
X152174918Y-102488000D01*
X152076269Y-102389179D01*
X151702982Y-102234176D01*
X151298792Y-102233824D01*
X150925234Y-102388175D01*
X150639179Y-102673731D01*
X150484176Y-103047018D01*
X150483824Y-103451208D01*
X150638175Y-103824766D01*
X150851547Y-104038511D01*
X150406697Y-104038123D01*
X149818344Y-104281225D01*
X149367807Y-104730976D01*
X149123678Y-105318904D01*
X149123123Y-105955503D01*
X149366225Y-106543856D01*
X149815976Y-106994393D01*
X150403904Y-107238522D01*
X151040503Y-107239077D01*
X151628856Y-106995975D01*
X152079393Y-106546224D01*
X152323522Y-105958296D01*
X152324077Y-105321697D01*
X152080975Y-104733344D01*
X151631224Y-104282807D01*
X151590941Y-104266080D01*
X151701208Y-104266176D01*
X152074766Y-104111825D01*
X152174765Y-104012000D01*
X158384370Y-104012000D01*
X158671631Y-104299261D01*
X158671631Y-106795888D01*
X158392616Y-106609457D01*
X157766929Y-106485000D01*
X157193071Y-106485000D01*
X156567384Y-106609457D01*
X156036951Y-106963880D01*
X155773609Y-107358000D01*
X145335631Y-107358000D01*
X144816054Y-106838424D01*
X144816176Y-106698792D01*
X144661825Y-106325234D01*
X144376269Y-106039179D01*
X144002982Y-105884176D01*
X143598792Y-105883824D01*
X143225234Y-106038175D01*
X142939179Y-106323731D01*
X142784176Y-106697018D01*
X142783824Y-107101208D01*
X131255737Y-107101208D01*
X131250452Y-106585987D01*
X131407950Y-106206691D01*
X131408448Y-105635813D01*
X131236437Y-105219515D01*
X131231069Y-104696152D01*
X131312046Y-104642046D01*
X131465954Y-104411705D01*
X131520000Y-104140000D01*
X131520000Y-93420000D01*
X161850000Y-93420000D01*
X161850000Y-125020000D01*
X161850000Y-125020000D01*
G37*
X161850000Y-125020000D02*
X131520000Y-125020000D01*
X131520000Y-114300000D01*
X131465954Y-114028295D01*
X131324614Y-113816764D01*
X131317451Y-113118303D01*
X149123123Y-113118303D01*
X149366225Y-113706656D01*
X149815976Y-114157193D01*
X150403904Y-114401322D01*
X151040503Y-114401877D01*
X151628856Y-114158775D01*
X152079393Y-113709024D01*
X152323522Y-113121096D01*
X152324077Y-112484497D01*
X152080975Y-111896144D01*
X151631224Y-111445607D01*
X151043296Y-111201478D01*
X150406697Y-111200923D01*
X149818344Y-111444025D01*
X149367807Y-111893776D01*
X149123678Y-112481704D01*
X149123123Y-113118303D01*
X131317451Y-113118303D01*
X131316513Y-113026896D01*
X131407950Y-112806691D01*
X131408448Y-112235813D01*
X131305853Y-111987513D01*
X131255737Y-107101208D01*
X142783824Y-107101208D01*
X142938175Y-107474766D01*
X143223731Y-107760821D01*
X143597018Y-107915824D01*
X143738317Y-107915947D01*
X144481185Y-108658816D01*
X144728396Y-108823997D01*
X145020000Y-108882000D01*
X155773609Y-108882000D01*
X156036951Y-109276120D01*
X156207385Y-109390000D01*
X156036951Y-109503880D01*
X155682528Y-110034313D01*
X155558071Y-110660000D01*
X155682528Y-111285687D01*
X155921778Y-111643751D01*
X155778559Y-111735910D01*
X155633569Y-111948110D01*
X155582560Y-112200000D01*
X155582560Y-114200000D01*
X155626838Y-114435317D01*
X155765910Y-114651441D01*
X155978110Y-114796431D01*
X156230000Y-114847440D01*
X158730000Y-114847440D01*
X158965317Y-114803162D01*
X159181441Y-114664090D01*
X159326431Y-114451890D01*
X159377440Y-114200000D01*
X159377440Y-112200000D01*
X159333162Y-111964683D01*
X159194090Y-111748559D01*
X159038998Y-111642589D01*
X159217414Y-111375571D01*
X159275605Y-111363996D01*
X159522815Y-111198815D01*
X159972446Y-110749185D01*
X160137627Y-110501974D01*
X160164197Y-110368396D01*
X160195631Y-110210369D01*
X160195631Y-103983631D01*
X160137627Y-103692026D01*
X159972446Y-103444816D01*
X159238815Y-102711185D01*
X158991605Y-102546004D01*
X158700000Y-102488000D01*
X152174918Y-102488000D01*
X152076269Y-102389179D01*
X151702982Y-102234176D01*
X151298792Y-102233824D01*
X150925234Y-102388175D01*
X150639179Y-102673731D01*
X150484176Y-103047018D01*
X150483824Y-103451208D01*
X150638175Y-103824766D01*
X150851547Y-104038511D01*
X150406697Y-104038123D01*
X149818344Y-104281225D01*
X149367807Y-104730976D01*
X149123678Y-105318904D01*
X149123123Y-105955503D01*
X149366225Y-106543856D01*
X149815976Y-106994393D01*
X150403904Y-107238522D01*
X151040503Y-107239077D01*
X151628856Y-106995975D01*
X152079393Y-106546224D01*
X152323522Y-105958296D01*
X152324077Y-105321697D01*
X152080975Y-104733344D01*
X151631224Y-104282807D01*
X151590941Y-104266080D01*
X151701208Y-104266176D01*
X152074766Y-104111825D01*
X152174765Y-104012000D01*
X158384370Y-104012000D01*
X158671631Y-104299261D01*
X158671631Y-106795888D01*
X158392616Y-106609457D01*
X157766929Y-106485000D01*
X157193071Y-106485000D01*
X156567384Y-106609457D01*
X156036951Y-106963880D01*
X155773609Y-107358000D01*
X145335631Y-107358000D01*
X144816054Y-106838424D01*
X144816176Y-106698792D01*
X144661825Y-106325234D01*
X144376269Y-106039179D01*
X144002982Y-105884176D01*
X143598792Y-105883824D01*
X143225234Y-106038175D01*
X142939179Y-106323731D01*
X142784176Y-106697018D01*
X142783824Y-107101208D01*
X131255737Y-107101208D01*
X131250452Y-106585987D01*
X131407950Y-106206691D01*
X131408448Y-105635813D01*
X131236437Y-105219515D01*
X131231069Y-104696152D01*
X131312046Y-104642046D01*
X131465954Y-104411705D01*
X131520000Y-104140000D01*
X131520000Y-93420000D01*
X161850000Y-93420000D01*
X161850000Y-125020000D01*
M02*
