M48
;DRILL file {KiCad 4.0.1-stable} date 2/26/2016 3:47:11 AM
;FORMAT={-:-/ absolute / metric / decimal}
FMAT,2
METRIC,TZ
T1C0.406
T2C1.000
T3C1.200
T4C2.800
T5C1.930
%
G90
G05
M71
T1
X131.829Y-104.618
X132.08Y-114.3
X132.588Y-110.744
X132.969Y-113.411
X134.366Y-116.967
X135.128Y-114.046
X136.017Y-105.18
X136.017Y-114.3
X136.271Y-100.33
X136.906Y-107.188
X138.303Y-115.951
X138.532Y-105.025
X139.709Y-100.575
X140.192Y-110.721
X140.316Y-114.34
X140.335Y-103.759
X140.335Y-113.411
X140.684Y-109.223
X140.779Y-117.583
X140.85Y-106.79
X140.97Y-112.522
X141.931Y-100.574
X141.986Y-103.886
X142.441Y-112.535
X142.494Y-114.808
X142.736Y-106.619
X143.129Y-103.831
X143.554Y-109.213
X144.221Y-103.759
X144.399Y-114.935
X144.78Y-110.241
X144.78Y-100.838
X145.308Y-111.049
X145.593Y-103.886
X145.823Y-109.98
X146.812Y-103.886
X146.92Y-117.457
X147.233Y-108.244
X147.931Y-102.501
X148.59Y-117.094
X148.62Y-107.713
X148.817Y-109.687
X149.281Y-111.145
X149.352Y-95.377
X150.368Y-100.838
X151.158Y-123.162
X152.134Y-111.13
X152.914Y-116.996
X153.419Y-119.002
X153.924Y-100.076
X154.179Y-96.012
X155.448Y-117.348
X160.198Y-113.03
X160.528Y-96.012
T2
X157.226Y-105.41
X157.226Y-107.95
X157.226Y-110.49
X157.226Y-113.03
T3
X128.473Y-105.92
X128.473Y-112.52
T4
X142.011Y-96.749
X142.011Y-121.691
T5
X150.724Y-105.639
X150.724Y-112.801
T0
M30
