G04 #@! TF.FileFunction,Paste,Top*
%FSLAX46Y46*%
G04 Gerber Fmt 4.6, Leading zero omitted, Abs format (unit mm)*
G04 Created by KiCad (PCBNEW 4.0.1-stable) date 4/22/2016 10:57:25 PM*
%MOMM*%
G01*
G04 APERTURE LIST*
%ADD10C,0.150000*%
%ADD11R,1.250000X1.000000*%
%ADD12R,0.750000X0.800000*%
%ADD13R,0.600000X0.500000*%
%ADD14R,0.500000X0.600000*%
%ADD15R,0.762000X1.270000*%
%ADD16R,1.600000X1.900000*%
%ADD17R,1.350000X0.400000*%
%ADD18R,1.400000X1.600000*%
%ADD19R,3.800000X2.030000*%
%ADD20R,0.700000X1.300000*%
%ADD21R,0.320000X1.400000*%
G04 APERTURE END LIST*
D10*
D11*
X141350000Y-101450000D03*
X141350000Y-103450000D03*
D12*
X136850000Y-101950000D03*
X136850000Y-103450000D03*
D13*
X143450000Y-103900000D03*
X144550000Y-103900000D03*
D14*
X139550000Y-114850000D03*
X139550000Y-113750000D03*
D15*
X136200000Y-110161000D03*
X136200000Y-111939000D03*
X136200000Y-107639000D03*
X136200000Y-105861000D03*
D13*
X139450000Y-103600000D03*
X138350000Y-103600000D03*
D16*
X129973200Y-108020000D03*
X129973200Y-110420000D03*
D17*
X132648200Y-109220000D03*
X132648200Y-109870000D03*
X132648200Y-110520000D03*
X132648200Y-108570000D03*
X132648200Y-107920000D03*
D18*
X132648200Y-106020000D03*
X132648200Y-112420000D03*
D13*
X142600000Y-113950000D03*
X141500000Y-113950000D03*
D19*
X157500000Y-121000000D03*
D20*
X151200000Y-99850000D03*
X149300000Y-99850000D03*
X151200000Y-97200000D03*
X149300000Y-97200000D03*
D21*
X146925000Y-112225000D03*
X146925000Y-105475000D03*
X146275000Y-112225000D03*
X146275000Y-105475000D03*
X145625000Y-112225000D03*
X145625000Y-105475000D03*
X144975000Y-112225000D03*
X144975000Y-105475000D03*
X144325000Y-112225000D03*
X144325000Y-105475000D03*
X143675000Y-112225000D03*
X143675000Y-105475000D03*
X143025000Y-112225000D03*
X143025000Y-105475000D03*
X142375000Y-112225000D03*
X142375000Y-105475000D03*
X141725000Y-112225000D03*
X141725000Y-105475000D03*
X141075000Y-112225000D03*
X141075000Y-105475000D03*
X140425000Y-112225000D03*
X140425000Y-105475000D03*
X139775000Y-112225000D03*
X139775000Y-105475000D03*
X139125000Y-112225000D03*
X139125000Y-105475000D03*
X138475000Y-112225000D03*
X138475000Y-105475000D03*
M02*
