G04 #@! TF.FileFunction,Legend,Top*
%FSLAX46Y46*%
G04 Gerber Fmt 4.6, Leading zero omitted, Abs format (unit mm)*
G04 Created by KiCad (PCBNEW 4.0.1-stable) date 4/22/2016 10:57:25 PM*
%MOMM*%
G01*
G04 APERTURE LIST*
%ADD10C,0.150000*%
%ADD11C,0.300000*%
G04 APERTURE END LIST*
D10*
D11*
X151507143Y-122450000D02*
X151364286Y-122378571D01*
X151150000Y-122378571D01*
X150935715Y-122450000D01*
X150792857Y-122592857D01*
X150721429Y-122735714D01*
X150650000Y-123021429D01*
X150650000Y-123235714D01*
X150721429Y-123521429D01*
X150792857Y-123664286D01*
X150935715Y-123807143D01*
X151150000Y-123878571D01*
X151292857Y-123878571D01*
X151507143Y-123807143D01*
X151578572Y-123735714D01*
X151578572Y-123235714D01*
X151292857Y-123235714D01*
X152221429Y-123878571D02*
X152221429Y-122378571D01*
X153078572Y-123878571D01*
X153078572Y-122378571D01*
X153792858Y-123878571D02*
X153792858Y-122378571D01*
X154150001Y-122378571D01*
X154364286Y-122450000D01*
X154507144Y-122592857D01*
X154578572Y-122735714D01*
X154650001Y-123021429D01*
X154650001Y-123235714D01*
X154578572Y-123521429D01*
X154507144Y-123664286D01*
X154364286Y-123807143D01*
X154150001Y-123878571D01*
X153792858Y-123878571D01*
X154800000Y-94428571D02*
X154800000Y-95428571D01*
X154442857Y-93857143D02*
X154085714Y-94928571D01*
X155014286Y-94928571D01*
X157514285Y-94000000D02*
X157371428Y-93928571D01*
X157157142Y-93928571D01*
X156942857Y-94000000D01*
X156799999Y-94142857D01*
X156728571Y-94285714D01*
X156657142Y-94571429D01*
X156657142Y-94785714D01*
X156728571Y-95071429D01*
X156799999Y-95214286D01*
X156942857Y-95357143D01*
X157157142Y-95428571D01*
X157299999Y-95428571D01*
X157514285Y-95357143D01*
X157585714Y-95285714D01*
X157585714Y-94785714D01*
X157299999Y-94785714D01*
X158228571Y-95428571D02*
X158228571Y-93928571D01*
X159085714Y-95428571D01*
X159085714Y-93928571D01*
X159800000Y-95428571D02*
X159800000Y-93928571D01*
X160157143Y-93928571D01*
X160371428Y-94000000D01*
X160514286Y-94142857D01*
X160585714Y-94285714D01*
X160657143Y-94571429D01*
X160657143Y-94785714D01*
X160585714Y-95071429D01*
X160514286Y-95214286D01*
X160371428Y-95357143D01*
X160157143Y-95428571D01*
X159800000Y-95428571D01*
X154014286Y-96328571D02*
X154942857Y-96328571D01*
X154442857Y-96900000D01*
X154657143Y-96900000D01*
X154800000Y-96971429D01*
X154871429Y-97042857D01*
X154942857Y-97185714D01*
X154942857Y-97542857D01*
X154871429Y-97685714D01*
X154800000Y-97757143D01*
X154657143Y-97828571D01*
X154228571Y-97828571D01*
X154085714Y-97757143D01*
X154014286Y-97685714D01*
X157585714Y-97828571D02*
X157085714Y-97114286D01*
X156728571Y-97828571D02*
X156728571Y-96328571D01*
X157299999Y-96328571D01*
X157442857Y-96400000D01*
X157514285Y-96471429D01*
X157585714Y-96614286D01*
X157585714Y-96828571D01*
X157514285Y-96971429D01*
X157442857Y-97042857D01*
X157299999Y-97114286D01*
X156728571Y-97114286D01*
X158085714Y-97828571D02*
X158871428Y-96828571D01*
X158085714Y-96828571D02*
X158871428Y-97828571D01*
X154085714Y-98871429D02*
X154157143Y-98800000D01*
X154300000Y-98728571D01*
X154657143Y-98728571D01*
X154800000Y-98800000D01*
X154871429Y-98871429D01*
X154942857Y-99014286D01*
X154942857Y-99157143D01*
X154871429Y-99371429D01*
X154014286Y-100228571D01*
X154942857Y-100228571D01*
X156514285Y-98728571D02*
X157371428Y-98728571D01*
X156942857Y-100228571D02*
X156942857Y-98728571D01*
X157728571Y-100228571D02*
X158514285Y-99228571D01*
X157728571Y-99228571D02*
X158514285Y-100228571D01*
X154942857Y-102628571D02*
X154085714Y-102628571D01*
X154514286Y-102628571D02*
X154514286Y-101128571D01*
X154371429Y-101342857D01*
X154228571Y-101485714D01*
X154085714Y-101557143D01*
X156728571Y-102057143D02*
X157871428Y-102057143D01*
X157299999Y-102628571D02*
X157299999Y-101485714D01*
X159300000Y-101128571D02*
X158585714Y-101128571D01*
X158514285Y-101842857D01*
X158585714Y-101771429D01*
X158728571Y-101700000D01*
X159085714Y-101700000D01*
X159228571Y-101771429D01*
X159300000Y-101842857D01*
X159371428Y-101985714D01*
X159371428Y-102342857D01*
X159300000Y-102485714D01*
X159228571Y-102557143D01*
X159085714Y-102628571D01*
X158728571Y-102628571D01*
X158585714Y-102557143D01*
X158514285Y-102485714D01*
X159799999Y-101128571D02*
X160299999Y-102628571D01*
X160799999Y-101128571D01*
D10*
X152723800Y-114720000D02*
X152723800Y-110920000D01*
X152723800Y-114720000D02*
X148723800Y-114720000D01*
X148723800Y-114720000D02*
X148723800Y-103720000D01*
X148723800Y-103720000D02*
X152623800Y-103720000D01*
X152623800Y-103720000D02*
X152623800Y-107520000D01*
X154123800Y-110420000D02*
X150523800Y-110420000D01*
X154023800Y-108020000D02*
X150223800Y-108020000D01*
X150223800Y-108020000D02*
X150223800Y-108920000D01*
X142200000Y-102950000D02*
X142200000Y-101950000D01*
X140500000Y-101950000D02*
X140500000Y-102950000D01*
X137450000Y-102350000D02*
X137450000Y-103050000D01*
X136250000Y-103050000D02*
X136250000Y-102350000D01*
X144250000Y-103425000D02*
X143750000Y-103425000D01*
X143750000Y-104375000D02*
X144250000Y-104375000D01*
X139075000Y-114050000D02*
X139075000Y-114550000D01*
X140025000Y-114550000D02*
X140025000Y-114050000D01*
X136700000Y-109950000D02*
X136700000Y-112250000D01*
X135700000Y-109950000D02*
X135700000Y-112250000D01*
X135700000Y-107850000D02*
X135700000Y-105550000D01*
X136700000Y-107850000D02*
X136700000Y-105550000D01*
X138650000Y-104075000D02*
X139150000Y-104075000D01*
X139150000Y-103125000D02*
X138650000Y-103125000D01*
X132173200Y-113420000D02*
X133573200Y-113420000D01*
X133573200Y-113420000D02*
X133573200Y-111820000D01*
X132173200Y-105020000D02*
X133573200Y-105020000D01*
X133573200Y-105020000D02*
X133573200Y-106620000D01*
X128523200Y-105220000D02*
X128523200Y-113220000D01*
X141800000Y-114425000D02*
X142300000Y-114425000D01*
X142300000Y-113475000D02*
X141800000Y-113475000D01*
X161580000Y-114470000D02*
X158780000Y-114470000D01*
X161580000Y-104310000D02*
X158780000Y-104310000D01*
X161580000Y-114470000D02*
X161580000Y-104310000D01*
X158780000Y-104310000D02*
X158780000Y-114470000D01*
X149650000Y-98975000D02*
X150850000Y-98975000D01*
X150850000Y-100725000D02*
X149650000Y-100725000D01*
X149650000Y-96325000D02*
X150850000Y-96325000D01*
X150850000Y-98075000D02*
X149650000Y-98075000D01*
X147525000Y-107650000D02*
X146275000Y-106675000D01*
X147525000Y-111025000D02*
X147525000Y-107675000D01*
X146275000Y-106675000D02*
X137815000Y-106675000D01*
X137815000Y-106675000D02*
X137815000Y-111025000D01*
X137815000Y-111025000D02*
X147525000Y-111025000D01*
X153312905Y-112212381D02*
X153312905Y-111212381D01*
X153551000Y-111212381D01*
X153693858Y-111260000D01*
X153789096Y-111355238D01*
X153836715Y-111450476D01*
X153884334Y-111640952D01*
X153884334Y-111783810D01*
X153836715Y-111974286D01*
X153789096Y-112069524D01*
X153693858Y-112164762D01*
X153551000Y-112212381D01*
X153312905Y-112212381D01*
X154836715Y-112212381D02*
X154265286Y-112212381D01*
X154551000Y-112212381D02*
X154551000Y-111212381D01*
X154455762Y-111355238D01*
X154360524Y-111450476D01*
X154265286Y-111498095D01*
X143607143Y-102316666D02*
X143654762Y-102364285D01*
X143702381Y-102507142D01*
X143702381Y-102602380D01*
X143654762Y-102745238D01*
X143559524Y-102840476D01*
X143464286Y-102888095D01*
X143273810Y-102935714D01*
X143130952Y-102935714D01*
X142940476Y-102888095D01*
X142845238Y-102840476D01*
X142750000Y-102745238D01*
X142702381Y-102602380D01*
X142702381Y-102507142D01*
X142750000Y-102364285D01*
X142797619Y-102316666D01*
X143035714Y-101459523D02*
X143702381Y-101459523D01*
X142654762Y-101697619D02*
X143369048Y-101935714D01*
X143369048Y-101316666D01*
X135707143Y-102816666D02*
X135754762Y-102864285D01*
X135802381Y-103007142D01*
X135802381Y-103102380D01*
X135754762Y-103245238D01*
X135659524Y-103340476D01*
X135564286Y-103388095D01*
X135373810Y-103435714D01*
X135230952Y-103435714D01*
X135040476Y-103388095D01*
X134945238Y-103340476D01*
X134850000Y-103245238D01*
X134802381Y-103102380D01*
X134802381Y-103007142D01*
X134850000Y-102864285D01*
X134897619Y-102816666D01*
X135802381Y-101864285D02*
X135802381Y-102435714D01*
X135802381Y-102150000D02*
X134802381Y-102150000D01*
X134945238Y-102245238D01*
X135040476Y-102340476D01*
X135088095Y-102435714D01*
X145183334Y-102707143D02*
X145135715Y-102754762D01*
X144992858Y-102802381D01*
X144897620Y-102802381D01*
X144754762Y-102754762D01*
X144659524Y-102659524D01*
X144611905Y-102564286D01*
X144564286Y-102373810D01*
X144564286Y-102230952D01*
X144611905Y-102040476D01*
X144659524Y-101945238D01*
X144754762Y-101850000D01*
X144897620Y-101802381D01*
X144992858Y-101802381D01*
X145135715Y-101850000D01*
X145183334Y-101897619D01*
X145564286Y-101897619D02*
X145611905Y-101850000D01*
X145707143Y-101802381D01*
X145945239Y-101802381D01*
X146040477Y-101850000D01*
X146088096Y-101897619D01*
X146135715Y-101992857D01*
X146135715Y-102088095D01*
X146088096Y-102230952D01*
X145516667Y-102802381D01*
X146135715Y-102802381D01*
X139957143Y-116666666D02*
X140004762Y-116714285D01*
X140052381Y-116857142D01*
X140052381Y-116952380D01*
X140004762Y-117095238D01*
X139909524Y-117190476D01*
X139814286Y-117238095D01*
X139623810Y-117285714D01*
X139480952Y-117285714D01*
X139290476Y-117238095D01*
X139195238Y-117190476D01*
X139100000Y-117095238D01*
X139052381Y-116952380D01*
X139052381Y-116857142D01*
X139100000Y-116714285D01*
X139147619Y-116666666D01*
X139052381Y-115761904D02*
X139052381Y-116238095D01*
X139528571Y-116285714D01*
X139480952Y-116238095D01*
X139433333Y-116142857D01*
X139433333Y-115904761D01*
X139480952Y-115809523D01*
X139528571Y-115761904D01*
X139623810Y-115714285D01*
X139861905Y-115714285D01*
X139957143Y-115761904D01*
X140004762Y-115809523D01*
X140052381Y-115904761D01*
X140052381Y-116142857D01*
X140004762Y-116238095D01*
X139957143Y-116285714D01*
X135107143Y-111616666D02*
X135154762Y-111664285D01*
X135202381Y-111807142D01*
X135202381Y-111902380D01*
X135154762Y-112045238D01*
X135059524Y-112140476D01*
X134964286Y-112188095D01*
X134773810Y-112235714D01*
X134630952Y-112235714D01*
X134440476Y-112188095D01*
X134345238Y-112140476D01*
X134250000Y-112045238D01*
X134202381Y-111902380D01*
X134202381Y-111807142D01*
X134250000Y-111664285D01*
X134297619Y-111616666D01*
X135202381Y-110616666D02*
X134726190Y-110950000D01*
X135202381Y-111188095D02*
X134202381Y-111188095D01*
X134202381Y-110807142D01*
X134250000Y-110711904D01*
X134297619Y-110664285D01*
X134392857Y-110616666D01*
X134535714Y-110616666D01*
X134630952Y-110664285D01*
X134678571Y-110711904D01*
X134726190Y-110807142D01*
X134726190Y-111188095D01*
X135202381Y-109664285D02*
X135202381Y-110235714D01*
X135202381Y-109950000D02*
X134202381Y-109950000D01*
X134345238Y-110045238D01*
X134440476Y-110140476D01*
X134488095Y-110235714D01*
X135057143Y-107416666D02*
X135104762Y-107464285D01*
X135152381Y-107607142D01*
X135152381Y-107702380D01*
X135104762Y-107845238D01*
X135009524Y-107940476D01*
X134914286Y-107988095D01*
X134723810Y-108035714D01*
X134580952Y-108035714D01*
X134390476Y-107988095D01*
X134295238Y-107940476D01*
X134200000Y-107845238D01*
X134152381Y-107702380D01*
X134152381Y-107607142D01*
X134200000Y-107464285D01*
X134247619Y-107416666D01*
X135152381Y-106416666D02*
X134676190Y-106750000D01*
X135152381Y-106988095D02*
X134152381Y-106988095D01*
X134152381Y-106607142D01*
X134200000Y-106511904D01*
X134247619Y-106464285D01*
X134342857Y-106416666D01*
X134485714Y-106416666D01*
X134580952Y-106464285D01*
X134628571Y-106511904D01*
X134676190Y-106607142D01*
X134676190Y-106988095D01*
X134247619Y-106035714D02*
X134200000Y-105988095D01*
X134152381Y-105892857D01*
X134152381Y-105654761D01*
X134200000Y-105559523D01*
X134247619Y-105511904D01*
X134342857Y-105464285D01*
X134438095Y-105464285D01*
X134580952Y-105511904D01*
X135152381Y-106083333D01*
X135152381Y-105464285D01*
X138733334Y-102602381D02*
X138257143Y-102602381D01*
X138257143Y-101602381D01*
X139590477Y-102602381D02*
X139019048Y-102602381D01*
X139304762Y-102602381D02*
X139304762Y-101602381D01*
X139209524Y-101745238D01*
X139114286Y-101840476D01*
X139019048Y-101888095D01*
X132702381Y-115333333D02*
X133416667Y-115333333D01*
X133559524Y-115380953D01*
X133654762Y-115476191D01*
X133702381Y-115619048D01*
X133702381Y-115714286D01*
X133702381Y-114333333D02*
X133702381Y-114904762D01*
X133702381Y-114619048D02*
X132702381Y-114619048D01*
X132845238Y-114714286D01*
X132940476Y-114809524D01*
X132988095Y-114904762D01*
X141833334Y-115757143D02*
X141785715Y-115804762D01*
X141642858Y-115852381D01*
X141547620Y-115852381D01*
X141404762Y-115804762D01*
X141309524Y-115709524D01*
X141261905Y-115614286D01*
X141214286Y-115423810D01*
X141214286Y-115280952D01*
X141261905Y-115090476D01*
X141309524Y-114995238D01*
X141404762Y-114900000D01*
X141547620Y-114852381D01*
X141642858Y-114852381D01*
X141785715Y-114900000D01*
X141833334Y-114947619D01*
X142166667Y-114852381D02*
X142785715Y-114852381D01*
X142452381Y-115233333D01*
X142595239Y-115233333D01*
X142690477Y-115280952D01*
X142738096Y-115328571D01*
X142785715Y-115423810D01*
X142785715Y-115661905D01*
X142738096Y-115757143D01*
X142690477Y-115804762D01*
X142595239Y-115852381D01*
X142309524Y-115852381D01*
X142214286Y-115804762D01*
X142166667Y-115757143D01*
X157166667Y-122252381D02*
X157166667Y-122966667D01*
X157119047Y-123109524D01*
X157023809Y-123204762D01*
X156880952Y-123252381D01*
X156785714Y-123252381D01*
X157595238Y-122347619D02*
X157642857Y-122300000D01*
X157738095Y-122252381D01*
X157976191Y-122252381D01*
X158071429Y-122300000D01*
X158119048Y-122347619D01*
X158166667Y-122442857D01*
X158166667Y-122538095D01*
X158119048Y-122680952D01*
X157547619Y-123252381D01*
X158166667Y-123252381D01*
X159966667Y-115002381D02*
X159966667Y-115716667D01*
X159919047Y-115859524D01*
X159823809Y-115954762D01*
X159680952Y-116002381D01*
X159585714Y-116002381D01*
X160347619Y-115002381D02*
X160966667Y-115002381D01*
X160633333Y-115383333D01*
X160776191Y-115383333D01*
X160871429Y-115430952D01*
X160919048Y-115478571D01*
X160966667Y-115573810D01*
X160966667Y-115811905D01*
X160919048Y-115907143D01*
X160871429Y-115954762D01*
X160776191Y-116002381D01*
X160490476Y-116002381D01*
X160395238Y-115954762D01*
X160347619Y-115907143D01*
X150083334Y-102202381D02*
X149750000Y-101726190D01*
X149511905Y-102202381D02*
X149511905Y-101202381D01*
X149892858Y-101202381D01*
X149988096Y-101250000D01*
X150035715Y-101297619D01*
X150083334Y-101392857D01*
X150083334Y-101535714D01*
X150035715Y-101630952D01*
X149988096Y-101678571D01*
X149892858Y-101726190D01*
X149511905Y-101726190D01*
X151035715Y-102202381D02*
X150464286Y-102202381D01*
X150750000Y-102202381D02*
X150750000Y-101202381D01*
X150654762Y-101345238D01*
X150559524Y-101440476D01*
X150464286Y-101488095D01*
X150033334Y-95902381D02*
X149700000Y-95426190D01*
X149461905Y-95902381D02*
X149461905Y-94902381D01*
X149842858Y-94902381D01*
X149938096Y-94950000D01*
X149985715Y-94997619D01*
X150033334Y-95092857D01*
X150033334Y-95235714D01*
X149985715Y-95330952D01*
X149938096Y-95378571D01*
X149842858Y-95426190D01*
X149461905Y-95426190D01*
X150414286Y-94997619D02*
X150461905Y-94950000D01*
X150557143Y-94902381D01*
X150795239Y-94902381D01*
X150890477Y-94950000D01*
X150938096Y-94997619D01*
X150985715Y-95092857D01*
X150985715Y-95188095D01*
X150938096Y-95330952D01*
X150366667Y-95902381D01*
X150985715Y-95902381D01*
X145185714Y-113492857D02*
X145185714Y-114464286D01*
X145242857Y-114578571D01*
X145300000Y-114635714D01*
X145414286Y-114692857D01*
X145642857Y-114692857D01*
X145757143Y-114635714D01*
X145814286Y-114578571D01*
X145871429Y-114464286D01*
X145871429Y-113492857D01*
X147071429Y-114692857D02*
X146385714Y-114692857D01*
X146728572Y-114692857D02*
X146728572Y-113492857D01*
X146614286Y-113664286D01*
X146500000Y-113778571D01*
X146385714Y-113835714D01*
X135940476Y-95202381D02*
X135940476Y-94202381D01*
X136273810Y-94916667D01*
X136607143Y-94202381D01*
X136607143Y-95202381D01*
X137035714Y-94297619D02*
X137083333Y-94250000D01*
X137178571Y-94202381D01*
X137416667Y-94202381D01*
X137511905Y-94250000D01*
X137559524Y-94297619D01*
X137607143Y-94392857D01*
X137607143Y-94488095D01*
X137559524Y-94630952D01*
X136988095Y-95202381D01*
X137607143Y-95202381D01*
X135890476Y-124002381D02*
X135890476Y-123002381D01*
X136223810Y-123716667D01*
X136557143Y-123002381D01*
X136557143Y-124002381D01*
X137557143Y-124002381D02*
X136985714Y-124002381D01*
X137271428Y-124002381D02*
X137271428Y-123002381D01*
X137176190Y-123145238D01*
X137080952Y-123240476D01*
X136985714Y-123288095D01*
M02*
