G04 #@! TF.FileFunction,Paste,Top*
%FSLAX46Y46*%
G04 Gerber Fmt 4.6, Leading zero omitted, Abs format (unit mm)*
G04 Created by KiCad (PCBNEW 4.0.1-stable) date 2/26/2016 3:51:48 AM*
%MOMM*%
G01*
G04 APERTURE LIST*
%ADD10C,0.100000*%
%ADD11R,0.750000X0.800000*%
%ADD12R,0.500000X0.600000*%
%ADD13R,1.000000X1.250000*%
%ADD14R,0.600000X0.500000*%
%ADD15R,0.762000X1.270000*%
%ADD16R,1.270000X0.762000*%
%ADD17R,0.900000X0.500000*%
%ADD18R,0.500000X0.900000*%
%ADD19R,0.700000X1.300000*%
%ADD20R,0.620000X1.220000*%
%ADD21O,1.500000X0.250000*%
%ADD22O,0.250000X1.500000*%
%ADD23R,1.220000X0.620000*%
%ADD24R,1.600000X1.900000*%
%ADD25R,1.350000X0.400000*%
%ADD26R,1.400000X1.600000*%
%ADD27R,3.800000X2.030000*%
%ADD28R,1.400000X1.200000*%
G04 APERTURE END LIST*
D10*
D11*
X132080000Y-103493000D03*
X132080000Y-101993000D03*
D12*
X143002000Y-104606000D03*
X143002000Y-105706000D03*
D11*
X149733000Y-117082000D03*
X149733000Y-115582000D03*
D13*
X139462000Y-105537000D03*
X141462000Y-105537000D03*
D12*
X140081000Y-102658000D03*
X140081000Y-101558000D03*
X145542000Y-105960000D03*
X145542000Y-104860000D03*
D13*
X146796000Y-102489000D03*
X144796000Y-102489000D03*
D12*
X144272000Y-105706000D03*
X144272000Y-104606000D03*
X146812000Y-105960000D03*
X146812000Y-104860000D03*
X137033000Y-109389000D03*
X137033000Y-108289000D03*
X134747000Y-101558000D03*
X134747000Y-102658000D03*
X137033000Y-114258000D03*
X137033000Y-115358000D03*
D14*
X135975000Y-113030000D03*
X137075000Y-113030000D03*
D15*
X134112000Y-111633000D03*
X134112000Y-113411000D03*
D16*
X134239000Y-106299000D03*
X136017000Y-106299000D03*
D12*
X133477000Y-101558000D03*
X133477000Y-102658000D03*
D14*
X142071000Y-102997000D03*
X143171000Y-102997000D03*
X142071000Y-101600000D03*
X143171000Y-101600000D03*
D17*
X152273000Y-97167000D03*
X152273000Y-98667000D03*
D18*
X150102000Y-94488000D03*
X148602000Y-94488000D03*
X146824000Y-118745000D03*
X148324000Y-118745000D03*
X133997000Y-107950000D03*
X135497000Y-107950000D03*
X133997000Y-109728000D03*
X135497000Y-109728000D03*
D17*
X151765000Y-117082000D03*
X151765000Y-115582000D03*
D18*
X135382000Y-116967000D03*
X136882000Y-116967000D03*
D19*
X147005000Y-120904000D03*
X148905000Y-120904000D03*
X147005000Y-123063000D03*
X148905000Y-123063000D03*
D20*
X150302000Y-96617000D03*
X149352000Y-96617000D03*
X148402000Y-96617000D03*
X150302000Y-99217000D03*
X149352000Y-99217000D03*
X148402000Y-99217000D03*
D21*
X138920000Y-109391000D03*
X138920000Y-109891000D03*
X138920000Y-110391000D03*
X138920000Y-110891000D03*
X138920000Y-111391000D03*
X138920000Y-111891000D03*
X138920000Y-112391000D03*
X138920000Y-112891000D03*
X138920000Y-113391000D03*
X138920000Y-113891000D03*
X138920000Y-114391000D03*
X138920000Y-114891000D03*
D22*
X140370000Y-116341000D03*
X140870000Y-116341000D03*
X141370000Y-116341000D03*
X141870000Y-116341000D03*
X142370000Y-116341000D03*
X142870000Y-116341000D03*
X143370000Y-116341000D03*
X143870000Y-116341000D03*
X144370000Y-116341000D03*
X144870000Y-116341000D03*
X145370000Y-116341000D03*
X145870000Y-116341000D03*
D21*
X147320000Y-114891000D03*
X147320000Y-114391000D03*
X147320000Y-113891000D03*
X147320000Y-113391000D03*
X147320000Y-112891000D03*
X147320000Y-112391000D03*
X147320000Y-111891000D03*
X147320000Y-111391000D03*
X147320000Y-110891000D03*
X147320000Y-110391000D03*
X147320000Y-109891000D03*
X147320000Y-109391000D03*
D22*
X145870000Y-107941000D03*
X145370000Y-107941000D03*
X144870000Y-107941000D03*
X144370000Y-107941000D03*
X143870000Y-107941000D03*
X143370000Y-107941000D03*
X142870000Y-107941000D03*
X142370000Y-107941000D03*
X141870000Y-107941000D03*
X141370000Y-107941000D03*
X140870000Y-107941000D03*
X140370000Y-107941000D03*
D23*
X152370000Y-120843000D03*
X152370000Y-121793000D03*
X152370000Y-122743000D03*
X154970000Y-120843000D03*
X154970000Y-122743000D03*
D14*
X152739000Y-124460000D03*
X153839000Y-124460000D03*
D24*
X128473200Y-108020000D03*
X128473200Y-110420000D03*
D25*
X131148200Y-109220000D03*
X131148200Y-109870000D03*
X131148200Y-110520000D03*
X131148200Y-108570000D03*
X131148200Y-107920000D03*
D26*
X131148200Y-106020000D03*
X131148200Y-112420000D03*
D14*
X152950000Y-100076000D03*
X151850000Y-100076000D03*
D27*
X157480000Y-96012000D03*
D28*
X136314000Y-103339000D03*
X138514000Y-103339000D03*
X138514000Y-101639000D03*
X136314000Y-101639000D03*
M02*
