G04 #@! TF.FileFunction,Soldermask,Top*
%FSLAX46Y46*%
G04 Gerber Fmt 4.6, Leading zero omitted, Abs format (unit mm)*
G04 Created by KiCad (PCBNEW 4.0.1-stable) date 3/25/2016 9:26:44 PM*
%MOMM*%
G01*
G04 APERTURE LIST*
%ADD10C,0.150000*%
%ADD11R,1.492200X1.187400*%
%ADD12C,2.330400*%
%ADD13R,1.650000X1.400000*%
%ADD14R,1.150000X1.200000*%
%ADD15R,1.000000X0.900000*%
%ADD16R,0.900000X1.000000*%
%ADD17R,1.162000X1.670000*%
%ADD18R,2.000000X2.300000*%
%ADD19C,2.000000*%
%ADD20R,1.750000X0.800000*%
%ADD21R,1.800000X2.000000*%
%ADD22R,4.200000X2.430000*%
%ADD23R,2.900000X2.400000*%
%ADD24O,2.900000X2.400000*%
%ADD25R,1.100000X1.700000*%
%ADD26R,0.720000X1.800000*%
%ADD27C,7.100000*%
G04 APERTURE END LIST*
D10*
D11*
X151028400Y-108623100D03*
X153619200Y-108623100D03*
X153619200Y-109816900D03*
X151028400Y-109816900D03*
D12*
X150723600Y-112801400D03*
X150723600Y-105638600D03*
D13*
X138300000Y-101250000D03*
X138300000Y-103250000D03*
D14*
X133200000Y-101700000D03*
X133200000Y-103200000D03*
D15*
X142650000Y-103650000D03*
X143750000Y-103650000D03*
D16*
X138550000Y-115200000D03*
X138550000Y-114100000D03*
D17*
X134150000Y-110211000D03*
X134150000Y-111989000D03*
X134150000Y-107589000D03*
X134150000Y-105811000D03*
D15*
X136150000Y-103300000D03*
X135050000Y-103300000D03*
D18*
X128473200Y-108020000D03*
X128473200Y-110420000D03*
D19*
X128473200Y-105920000D03*
X128473200Y-112520000D03*
D20*
X131148200Y-109220000D03*
X131148200Y-109870000D03*
X131148200Y-110520000D03*
X131148200Y-108570000D03*
X131148200Y-107920000D03*
D21*
X131148200Y-106020000D03*
X131148200Y-112420000D03*
D15*
X141350000Y-114100000D03*
X140250000Y-114100000D03*
D22*
X157500000Y-121000000D03*
D23*
X157480000Y-113200000D03*
D24*
X157480000Y-110660000D03*
X157480000Y-108120000D03*
X157480000Y-105580000D03*
D25*
X149200000Y-99600000D03*
X147300000Y-99600000D03*
X149200000Y-101800000D03*
X147300000Y-101800000D03*
D26*
X145725000Y-112275000D03*
X145725000Y-105525000D03*
X145075000Y-112275000D03*
X145075000Y-105525000D03*
X144425000Y-112275000D03*
X144425000Y-105525000D03*
X143775000Y-112275000D03*
X143775000Y-105525000D03*
X143125000Y-112275000D03*
X143125000Y-105525000D03*
X142475000Y-112275000D03*
X142475000Y-105525000D03*
X141825000Y-112275000D03*
X141825000Y-105525000D03*
X141175000Y-112275000D03*
X141175000Y-105525000D03*
X140525000Y-112275000D03*
X140525000Y-105525000D03*
X139875000Y-112275000D03*
X139875000Y-105525000D03*
X139225000Y-112275000D03*
X139225000Y-105525000D03*
X138575000Y-112275000D03*
X138575000Y-105525000D03*
X137925000Y-112275000D03*
X137925000Y-105525000D03*
X137275000Y-112275000D03*
X137275000Y-105525000D03*
D27*
X142011400Y-96748600D03*
X142011400Y-121691400D03*
M02*
