G04 #@! TF.FileFunction,Copper,L1,Top,Signal*
%FSLAX46Y46*%
G04 Gerber Fmt 4.6, Leading zero omitted, Abs format (unit mm)*
G04 Created by KiCad (PCBNEW 4.0.1-stable) date 3/26/2016 6:41:50 PM*
%MOMM*%
G01*
G04 APERTURE LIST*
%ADD10C,0.150000*%
%ADD11R,1.092200X0.787400*%
%ADD12R,1.250000X1.000000*%
%ADD13R,0.750000X0.800000*%
%ADD14R,0.600000X0.500000*%
%ADD15R,0.500000X0.600000*%
%ADD16R,0.762000X1.270000*%
%ADD17R,1.600000X1.900000*%
%ADD18C,1.600000*%
%ADD19R,1.350000X0.400000*%
%ADD20R,1.400000X1.600000*%
%ADD21R,3.800000X2.030000*%
%ADD22R,2.500000X2.000000*%
%ADD23O,2.500000X2.000000*%
%ADD24R,0.700000X1.300000*%
%ADD25R,0.320000X1.400000*%
%ADD26C,6.700000*%
%ADD27C,0.762000*%
%ADD28C,0.254000*%
%ADD29C,0.508000*%
G04 APERTURE END LIST*
D10*
D11*
X151028400Y-108623100D03*
X153619200Y-108623100D03*
X153619200Y-109816900D03*
X151028400Y-109816900D03*
D12*
X141350000Y-101450000D03*
X141350000Y-103450000D03*
D13*
X136850000Y-101950000D03*
X136850000Y-103450000D03*
D14*
X143450000Y-103900000D03*
X144550000Y-103900000D03*
D15*
X139550000Y-114850000D03*
X139550000Y-113750000D03*
D16*
X136200000Y-110161000D03*
X136200000Y-111939000D03*
X136200000Y-107639000D03*
X136200000Y-105861000D03*
D14*
X139450000Y-103600000D03*
X138350000Y-103600000D03*
D17*
X129973200Y-108020000D03*
X129973200Y-110420000D03*
D18*
X129973200Y-105920000D03*
X129973200Y-112520000D03*
D19*
X132648200Y-109220000D03*
X132648200Y-109870000D03*
X132648200Y-110520000D03*
X132648200Y-108570000D03*
X132648200Y-107920000D03*
D20*
X132648200Y-106020000D03*
X132648200Y-112420000D03*
D14*
X142600000Y-113950000D03*
X141500000Y-113950000D03*
D21*
X157500000Y-121000000D03*
D22*
X157480000Y-113200000D03*
D23*
X157480000Y-110660000D03*
X157480000Y-108120000D03*
X157480000Y-105580000D03*
D24*
X151200000Y-99850000D03*
X149300000Y-99850000D03*
X151200000Y-97200000D03*
X149300000Y-97200000D03*
D25*
X146925000Y-112225000D03*
X146925000Y-105475000D03*
X146275000Y-112225000D03*
X146275000Y-105475000D03*
X145625000Y-112225000D03*
X145625000Y-105475000D03*
X144975000Y-112225000D03*
X144975000Y-105475000D03*
X144325000Y-112225000D03*
X144325000Y-105475000D03*
X143675000Y-112225000D03*
X143675000Y-105475000D03*
X143025000Y-112225000D03*
X143025000Y-105475000D03*
X142375000Y-112225000D03*
X142375000Y-105475000D03*
X141725000Y-112225000D03*
X141725000Y-105475000D03*
X141075000Y-112225000D03*
X141075000Y-105475000D03*
X140425000Y-112225000D03*
X140425000Y-105475000D03*
X139775000Y-112225000D03*
X139775000Y-105475000D03*
X139125000Y-112225000D03*
X139125000Y-105475000D03*
X138475000Y-112225000D03*
X138475000Y-105475000D03*
D26*
X142011400Y-96748600D03*
X142011400Y-121691400D03*
D27*
X143600000Y-113950000D03*
X160550000Y-104950000D03*
X160550000Y-106550000D03*
X142671126Y-103589010D03*
X139950000Y-101450000D03*
X142650000Y-101450000D03*
X137900000Y-101950000D03*
X136850000Y-100950000D03*
X135700000Y-101950000D03*
X137150000Y-105850000D03*
X136200000Y-104550000D03*
X137150000Y-111950000D03*
X136200000Y-113250000D03*
X135200000Y-111900000D03*
X142300000Y-107500000D03*
X142605029Y-110755029D03*
X140400000Y-110800000D03*
X138500000Y-114900000D03*
X145000000Y-113650000D03*
X134150000Y-111050000D03*
X134250000Y-110100000D03*
X155400000Y-105550000D03*
X159800000Y-121000000D03*
X155200000Y-121000000D03*
X157500000Y-122600000D03*
X157500000Y-119500000D03*
X151500000Y-103250000D03*
X143800000Y-106900000D03*
D28*
X142600000Y-113950000D02*
X143600000Y-113950000D01*
X142600000Y-113950000D02*
X142375000Y-113725000D01*
X142375000Y-113725000D02*
X142375000Y-112225000D01*
D29*
X157480000Y-105580000D02*
X159920000Y-105580000D01*
X159920000Y-105580000D02*
X160550000Y-104950000D01*
D28*
X157480000Y-105580000D02*
X159580000Y-105580000D01*
D29*
X159580000Y-105580000D02*
X160550000Y-106550000D01*
D28*
X143450000Y-103900000D02*
X142982116Y-103900000D01*
X142982116Y-103900000D02*
X142671126Y-103589010D01*
X141350000Y-101450000D02*
X139950000Y-101450000D01*
X141350000Y-101450000D02*
X142650000Y-101450000D01*
X136850000Y-101950000D02*
X137900000Y-101950000D01*
X136850000Y-101950000D02*
X136850000Y-100950000D01*
X136850000Y-101950000D02*
X135700000Y-101950000D01*
X136200000Y-105861000D02*
X137139000Y-105861000D01*
X137139000Y-105861000D02*
X137150000Y-105850000D01*
X136200000Y-105861000D02*
X136200000Y-104550000D01*
X136200000Y-111939000D02*
X137139000Y-111939000D01*
X137139000Y-111939000D02*
X137150000Y-111950000D01*
X136200000Y-111939000D02*
X136200000Y-113250000D01*
X136200000Y-111939000D02*
X135239000Y-111939000D01*
X135239000Y-111939000D02*
X135200000Y-111900000D01*
X143025000Y-105475000D02*
X143025000Y-106775000D01*
X143025000Y-106775000D02*
X142300000Y-107500000D01*
X142375000Y-112225000D02*
X142375000Y-110985058D01*
X142375000Y-110985058D02*
X142605029Y-110755029D01*
X140425000Y-112225000D02*
X140425000Y-110825000D01*
X140425000Y-110825000D02*
X140400000Y-110800000D01*
X139550000Y-114850000D02*
X138550000Y-114850000D01*
X138550000Y-114850000D02*
X138500000Y-114900000D01*
X144975000Y-112225000D02*
X144975000Y-113625000D01*
X144975000Y-113625000D02*
X145000000Y-113650000D01*
X143450000Y-103900000D02*
X143025000Y-104325000D01*
X143025000Y-104325000D02*
X143025000Y-105475000D01*
X132648200Y-110520000D02*
X133620000Y-110520000D01*
X133620000Y-110520000D02*
X134150000Y-111050000D01*
X132648200Y-110520000D02*
X133830000Y-110520000D01*
X133830000Y-110520000D02*
X134250000Y-110100000D01*
X139550000Y-114850000D02*
X140054000Y-114850000D01*
X140054000Y-114850000D02*
X140425000Y-114479000D01*
X140425000Y-114479000D02*
X140425000Y-113179000D01*
X140425000Y-113179000D02*
X140425000Y-112225000D01*
D29*
X157480000Y-105580000D02*
X155430000Y-105580000D01*
D28*
X155430000Y-105580000D02*
X155400000Y-105550000D01*
X157500000Y-121000000D02*
X159800000Y-121000000D01*
X157500000Y-121000000D02*
X155200000Y-121000000D01*
X157500000Y-121000000D02*
X157500000Y-122600000D01*
X157500000Y-121000000D02*
X157500000Y-119500000D01*
D29*
X141500000Y-114600000D02*
X143100000Y-116200000D01*
X152722000Y-116200000D02*
X155722000Y-113200000D01*
X143100000Y-116200000D02*
X152722000Y-116200000D01*
X155722000Y-113200000D02*
X157480000Y-113200000D01*
D28*
X141500000Y-113950000D02*
X141500000Y-114600000D01*
X141725000Y-112225000D02*
X141725000Y-113725000D01*
X141725000Y-113725000D02*
X141500000Y-113950000D01*
D29*
X149300000Y-99850000D02*
X149300000Y-101008000D01*
X149300000Y-101008000D02*
X147608000Y-102700000D01*
X147608000Y-102700000D02*
X144108000Y-102700000D01*
X149300000Y-97200000D02*
X149300000Y-99850000D01*
D28*
X144975000Y-105475000D02*
X144975000Y-107127808D01*
D29*
X144975000Y-107127808D02*
X141725000Y-110377808D01*
D28*
X141725000Y-110377808D02*
X141725000Y-111271000D01*
X141725000Y-111271000D02*
X141725000Y-112225000D01*
X144550000Y-103900000D02*
X144975000Y-104325000D01*
X144975000Y-104325000D02*
X144975000Y-105475000D01*
D29*
X141350000Y-103450000D02*
X141475000Y-103450000D01*
X141475000Y-103450000D02*
X142225000Y-102700000D01*
X142225000Y-102700000D02*
X144108000Y-102700000D01*
X144108000Y-102700000D02*
X144550000Y-103142000D01*
X144550000Y-103142000D02*
X144550000Y-103900000D01*
X139450000Y-103600000D02*
X141200000Y-103600000D01*
X141200000Y-103600000D02*
X141350000Y-103450000D01*
X157480000Y-113200000D02*
X157230000Y-113200000D01*
D28*
X146950000Y-104400000D02*
X148100000Y-103250000D01*
X148100000Y-103250000D02*
X151500000Y-103250000D01*
X146950000Y-104910000D02*
X146950000Y-104400000D01*
X146925000Y-105475000D02*
X146925000Y-104935000D01*
X146925000Y-104935000D02*
X146950000Y-104910000D01*
X157230000Y-110660000D02*
X157480000Y-110660000D01*
X144325000Y-105475000D02*
X144325000Y-106375000D01*
X144325000Y-106375000D02*
X143800000Y-106900000D01*
X148501400Y-110350000D02*
X143946000Y-110350000D01*
X143946000Y-110350000D02*
X143025000Y-111271000D01*
X143025000Y-111271000D02*
X143025000Y-112225000D01*
X151028400Y-108623100D02*
X150228300Y-108623100D01*
X150228300Y-108623100D02*
X148501400Y-110350000D01*
X153183800Y-110900000D02*
X144046000Y-110900000D01*
X144046000Y-110900000D02*
X143675000Y-111271000D01*
X143675000Y-111271000D02*
X143675000Y-112225000D01*
X153619200Y-109816900D02*
X153619200Y-110464600D01*
X153619200Y-110464600D02*
X153183800Y-110900000D01*
X145700000Y-105500000D02*
X145725000Y-105525000D01*
D29*
X138350000Y-103600000D02*
X137000000Y-103600000D01*
D28*
X137000000Y-103600000D02*
X136850000Y-103450000D01*
D29*
X134600000Y-104550000D02*
X135700000Y-103450000D01*
X135700000Y-103450000D02*
X136850000Y-103450000D01*
X134600000Y-106950000D02*
X134600000Y-104550000D01*
X133650000Y-107900000D02*
X134600000Y-106950000D01*
D28*
X133143200Y-107900000D02*
X133650000Y-107900000D01*
X132648200Y-107920000D02*
X133123200Y-107920000D01*
X133123200Y-107920000D02*
X133143200Y-107900000D01*
X139775000Y-112225000D02*
X139775000Y-113525000D01*
X139775000Y-113525000D02*
X139550000Y-113750000D01*
X132648200Y-109220000D02*
X136150000Y-109220000D01*
X136150000Y-109220000D02*
X137170000Y-109220000D01*
X136200000Y-110161000D02*
X136200000Y-109270000D01*
X136200000Y-109270000D02*
X136150000Y-109220000D01*
X137170000Y-109220000D02*
X138475000Y-110525000D01*
X138475000Y-110525000D02*
X138475000Y-112225000D01*
X133050000Y-108600000D02*
X136150000Y-108600000D01*
X136150000Y-108600000D02*
X137850000Y-108600000D01*
X136200000Y-107639000D02*
X136200000Y-108550000D01*
X136200000Y-108550000D02*
X136150000Y-108600000D01*
X137850000Y-108600000D02*
X139125000Y-109875000D01*
X139125000Y-109875000D02*
X139125000Y-112225000D01*
X132648200Y-108570000D02*
X133020000Y-108570000D01*
X133020000Y-108570000D02*
X133050000Y-108600000D01*
X151200000Y-97200000D02*
X151804000Y-97200000D01*
X151804000Y-97200000D02*
X152995719Y-98391719D01*
X152995719Y-98391719D02*
X152995719Y-107351919D01*
X152995719Y-107351919D02*
X153619200Y-107975400D01*
X153619200Y-107975400D02*
X153619200Y-108623100D01*
X151200000Y-99850000D02*
X151804000Y-99850000D01*
X151804000Y-99850000D02*
X152367140Y-100413140D01*
X151578432Y-109816900D02*
X151028400Y-109816900D01*
X152367140Y-100413140D02*
X152367140Y-109028192D01*
X152367140Y-109028192D02*
X151578432Y-109816900D01*
X129973200Y-112520000D02*
X132548200Y-112520000D01*
X132548200Y-112520000D02*
X132648200Y-112420000D01*
X129973200Y-112520000D02*
X129973200Y-110420000D01*
X129973200Y-110420000D02*
X129973200Y-108020000D01*
X129973200Y-108020000D02*
X129973200Y-105920000D01*
X132648200Y-106020000D02*
X130073200Y-106020000D01*
X130073200Y-106020000D02*
X129973200Y-105920000D01*
M02*
