G04 #@! TF.FileFunction,Copper,L1,Top,Signal*
%FSLAX46Y46*%
G04 Gerber Fmt 4.6, Leading zero omitted, Abs format (unit mm)*
G04 Created by KiCad (PCBNEW 4.0.1-stable) date 2/26/2016 3:51:48 AM*
%MOMM*%
G01*
G04 APERTURE LIST*
%ADD10C,0.100000*%
%ADD11R,0.750000X0.800000*%
%ADD12R,0.500000X0.600000*%
%ADD13R,1.000000X1.250000*%
%ADD14R,0.600000X0.500000*%
%ADD15R,0.762000X1.270000*%
%ADD16R,1.270000X0.762000*%
%ADD17R,1.092200X0.787400*%
%ADD18R,0.900000X0.500000*%
%ADD19R,0.500000X0.900000*%
%ADD20R,0.700000X1.300000*%
%ADD21R,0.620000X1.220000*%
%ADD22O,1.500000X0.250000*%
%ADD23O,0.250000X1.500000*%
%ADD24R,2.500000X2.000000*%
%ADD25O,2.500000X2.000000*%
%ADD26R,1.220000X0.620000*%
%ADD27C,6.200000*%
%ADD28R,1.600000X1.900000*%
%ADD29C,1.600000*%
%ADD30R,1.350000X0.400000*%
%ADD31R,1.400000X1.600000*%
%ADD32R,3.800000X2.030000*%
%ADD33R,1.400000X1.200000*%
%ADD34C,0.762000*%
%ADD35C,0.203200*%
%ADD36C,0.812800*%
%ADD37C,0.406400*%
%ADD38C,0.254000*%
G04 APERTURE END LIST*
D10*
D11*
X132080000Y-103493000D03*
X132080000Y-101993000D03*
D12*
X143002000Y-104606000D03*
X143002000Y-105706000D03*
D11*
X149733000Y-117082000D03*
X149733000Y-115582000D03*
D13*
X139462000Y-105537000D03*
X141462000Y-105537000D03*
D12*
X140081000Y-102658000D03*
X140081000Y-101558000D03*
X145542000Y-105960000D03*
X145542000Y-104860000D03*
D13*
X146796000Y-102489000D03*
X144796000Y-102489000D03*
D12*
X144272000Y-105706000D03*
X144272000Y-104606000D03*
X146812000Y-105960000D03*
X146812000Y-104860000D03*
X137033000Y-109389000D03*
X137033000Y-108289000D03*
X134747000Y-101558000D03*
X134747000Y-102658000D03*
X137033000Y-114258000D03*
X137033000Y-115358000D03*
D14*
X135975000Y-113030000D03*
X137075000Y-113030000D03*
D15*
X134112000Y-111633000D03*
X134112000Y-113411000D03*
D16*
X134239000Y-106299000D03*
X136017000Y-106299000D03*
D17*
X151028400Y-108623100D03*
X153619200Y-108623100D03*
X153619200Y-109816900D03*
X151028400Y-109816900D03*
D12*
X133477000Y-101558000D03*
X133477000Y-102658000D03*
D14*
X142071000Y-102997000D03*
X143171000Y-102997000D03*
X142071000Y-101600000D03*
X143171000Y-101600000D03*
D18*
X152273000Y-97167000D03*
X152273000Y-98667000D03*
D19*
X150102000Y-94488000D03*
X148602000Y-94488000D03*
X146824000Y-118745000D03*
X148324000Y-118745000D03*
X133997000Y-107950000D03*
X135497000Y-107950000D03*
X133997000Y-109728000D03*
X135497000Y-109728000D03*
D18*
X151765000Y-117082000D03*
X151765000Y-115582000D03*
D19*
X135382000Y-116967000D03*
X136882000Y-116967000D03*
D20*
X147005000Y-120904000D03*
X148905000Y-120904000D03*
X147005000Y-123063000D03*
X148905000Y-123063000D03*
D21*
X150302000Y-96617000D03*
X149352000Y-96617000D03*
X148402000Y-96617000D03*
X150302000Y-99217000D03*
X149352000Y-99217000D03*
X148402000Y-99217000D03*
D22*
X138920000Y-109391000D03*
X138920000Y-109891000D03*
X138920000Y-110391000D03*
X138920000Y-110891000D03*
X138920000Y-111391000D03*
X138920000Y-111891000D03*
X138920000Y-112391000D03*
X138920000Y-112891000D03*
X138920000Y-113391000D03*
X138920000Y-113891000D03*
X138920000Y-114391000D03*
X138920000Y-114891000D03*
D23*
X140370000Y-116341000D03*
X140870000Y-116341000D03*
X141370000Y-116341000D03*
X141870000Y-116341000D03*
X142370000Y-116341000D03*
X142870000Y-116341000D03*
X143370000Y-116341000D03*
X143870000Y-116341000D03*
X144370000Y-116341000D03*
X144870000Y-116341000D03*
X145370000Y-116341000D03*
X145870000Y-116341000D03*
D22*
X147320000Y-114891000D03*
X147320000Y-114391000D03*
X147320000Y-113891000D03*
X147320000Y-113391000D03*
X147320000Y-112891000D03*
X147320000Y-112391000D03*
X147320000Y-111891000D03*
X147320000Y-111391000D03*
X147320000Y-110891000D03*
X147320000Y-110391000D03*
X147320000Y-109891000D03*
X147320000Y-109391000D03*
D23*
X145870000Y-107941000D03*
X145370000Y-107941000D03*
X144870000Y-107941000D03*
X144370000Y-107941000D03*
X143870000Y-107941000D03*
X143370000Y-107941000D03*
X142870000Y-107941000D03*
X142370000Y-107941000D03*
X141870000Y-107941000D03*
X141370000Y-107941000D03*
X140870000Y-107941000D03*
X140370000Y-107941000D03*
D24*
X157226000Y-113030000D03*
D25*
X157226000Y-110490000D03*
X157226000Y-107950000D03*
X157226000Y-105410000D03*
D26*
X152370000Y-120843000D03*
X152370000Y-121793000D03*
X152370000Y-122743000D03*
X154970000Y-120843000D03*
X154970000Y-122743000D03*
D14*
X152739000Y-124460000D03*
X153839000Y-124460000D03*
D27*
X142011400Y-121691400D03*
X142011400Y-96748600D03*
D28*
X128473200Y-108020000D03*
X128473200Y-110420000D03*
D29*
X128473200Y-105920000D03*
X128473200Y-112520000D03*
D30*
X131148200Y-109220000D03*
X131148200Y-109870000D03*
X131148200Y-110520000D03*
X131148200Y-108570000D03*
X131148200Y-107920000D03*
D31*
X131148200Y-106020000D03*
X131148200Y-112420000D03*
D14*
X152950000Y-100076000D03*
X151850000Y-100076000D03*
D32*
X157480000Y-96012000D03*
D33*
X136314000Y-103339000D03*
X138514000Y-103339000D03*
X138514000Y-101639000D03*
X136314000Y-101639000D03*
D34*
X136017000Y-105179607D03*
X138532056Y-105024769D03*
X136271000Y-100330000D03*
X160528000Y-96012000D03*
X154179389Y-96012000D03*
X143554177Y-109212583D03*
X145823135Y-109980039D03*
X153924000Y-100076000D03*
X131828592Y-104617509D03*
X132080000Y-114300000D03*
X148816889Y-109687452D03*
X140684180Y-109223169D03*
X142736393Y-106619489D03*
X140850030Y-106790498D03*
X140192180Y-110721010D03*
X136905647Y-107188000D03*
X144399000Y-114935000D03*
X151157556Y-123162126D03*
X148590000Y-117094000D03*
X149352000Y-95377000D03*
X147931067Y-102501488D03*
X146812000Y-103886000D03*
X145592810Y-103886000D03*
X144221190Y-103759000D03*
X143129000Y-103831202D03*
X134366000Y-116967000D03*
X136017000Y-114300000D03*
X135128000Y-114046000D03*
X132969000Y-113411000D03*
X132588000Y-110744000D03*
X140316023Y-114340398D03*
X140335000Y-113411000D03*
X146919931Y-117457371D03*
X153419472Y-119002472D03*
X160197810Y-113030000D03*
X155448000Y-117348000D03*
X152913574Y-116995753D03*
X142494000Y-114808000D03*
X138303000Y-115951000D03*
X150368000Y-100838000D03*
X144780000Y-100838000D03*
X141931240Y-100574235D03*
X139708674Y-100575327D03*
X142440909Y-112534698D03*
X141986000Y-103886000D03*
X140335000Y-103759000D03*
X140970000Y-112522000D03*
X149280581Y-111144959D03*
X152134435Y-111130349D03*
X145308489Y-111048542D03*
X148620363Y-107713203D03*
X144779529Y-110241180D03*
X147233210Y-108244207D03*
X140779168Y-117582746D03*
D35*
X136017000Y-106299000D02*
X136017000Y-105179607D01*
X138758800Y-105537000D02*
X138532056Y-105310256D01*
X139462000Y-105537000D02*
X138758800Y-105537000D01*
X138514000Y-105006713D02*
X138532056Y-105024769D01*
X138514000Y-103339000D02*
X138514000Y-105006713D01*
X138532056Y-105310256D02*
X138532056Y-105024769D01*
X136314000Y-101639000D02*
X136314000Y-100373000D01*
X136314000Y-100373000D02*
X136271000Y-100330000D01*
X138514000Y-103339000D02*
X139400000Y-103339000D01*
X139400000Y-103339000D02*
X140081000Y-102658000D01*
X136314000Y-101639000D02*
X134828000Y-101639000D01*
X134828000Y-101639000D02*
X134747000Y-101558000D01*
D36*
X157480000Y-96012000D02*
X160528000Y-96012000D01*
X157480000Y-96012000D02*
X154179389Y-96012000D01*
D35*
X143554177Y-108337343D02*
X143554177Y-108673768D01*
X143555812Y-108335708D02*
X143554177Y-108337343D01*
X143554177Y-108673768D02*
X143554177Y-109212583D01*
X147320000Y-109891000D02*
X145912174Y-109891000D01*
X145912174Y-109891000D02*
X145823135Y-109980039D01*
X146105961Y-109980039D02*
X145823135Y-109980039D01*
X146695000Y-109391000D02*
X146105961Y-109980039D01*
X147320000Y-109391000D02*
X146695000Y-109391000D01*
X143870000Y-107941000D02*
X143555812Y-108255188D01*
X143370000Y-107941000D02*
X143555812Y-108126812D01*
X143555812Y-108255188D02*
X143555812Y-108335708D01*
X143555812Y-108126812D02*
X143555812Y-108335708D01*
X152950000Y-100076000D02*
X153924000Y-100076000D01*
X132080000Y-104366101D02*
X131828592Y-104617509D01*
X132080000Y-103493000D02*
X132080000Y-104366101D01*
X131547491Y-104617509D02*
X131828592Y-104617509D01*
X131148200Y-106020000D02*
X131148200Y-105016800D01*
X131148200Y-105016800D02*
X131547491Y-104617509D01*
X131148200Y-112420000D02*
X131148200Y-112520000D01*
X131148200Y-112520000D02*
X132080000Y-113451800D01*
X132080000Y-113451800D02*
X132080000Y-114300000D01*
X147320000Y-109891000D02*
X148613341Y-109891000D01*
X148613341Y-109891000D02*
X148816889Y-109687452D01*
X147320000Y-109391000D02*
X148520437Y-109391000D01*
X148520437Y-109391000D02*
X148816889Y-109687452D01*
X140870000Y-107941000D02*
X140870000Y-109037349D01*
X140370000Y-107941000D02*
X140370000Y-108908989D01*
X140370000Y-108908989D02*
X140684180Y-109223169D01*
X140870000Y-109037349D02*
X140684180Y-109223169D01*
X143370000Y-107941000D02*
X143370000Y-106987800D01*
X143370000Y-106987800D02*
X143001689Y-106619489D01*
X143001689Y-106619489D02*
X142736393Y-106619489D01*
X140370000Y-107941000D02*
X140370000Y-107270528D01*
X140370000Y-107270528D02*
X140850030Y-106790498D01*
X140870000Y-107941000D02*
X140870000Y-106810468D01*
X140870000Y-106810468D02*
X140850030Y-106790498D01*
X140022190Y-110891000D02*
X140192180Y-110721010D01*
X138920000Y-110891000D02*
X140022190Y-110891000D01*
X137033000Y-108289000D02*
X137033000Y-107315353D01*
X137033000Y-107315353D02*
X136905647Y-107188000D01*
X144870000Y-116341000D02*
X144870000Y-115406000D01*
X144870000Y-115406000D02*
X144399000Y-114935000D01*
D37*
X152370000Y-122743000D02*
X151576682Y-122743000D01*
X151576682Y-122743000D02*
X151157556Y-123162126D01*
D35*
X149733000Y-117082000D02*
X148602000Y-117082000D01*
X148602000Y-117082000D02*
X148590000Y-117094000D01*
X149352000Y-96617000D02*
X149352000Y-95377000D01*
X146796000Y-102489000D02*
X147918579Y-102489000D01*
X147918579Y-102489000D02*
X147931067Y-102501488D01*
X146812000Y-104860000D02*
X146812000Y-103886000D01*
X145542000Y-104860000D02*
X145542000Y-103936810D01*
X145542000Y-103936810D02*
X145592810Y-103886000D01*
X144272000Y-104606000D02*
X144272000Y-103809810D01*
X144272000Y-103809810D02*
X144221190Y-103759000D01*
X143002000Y-104606000D02*
X143002000Y-103958202D01*
X143002000Y-103958202D02*
X143129000Y-103831202D01*
X135382000Y-116967000D02*
X134366000Y-116967000D01*
X137033000Y-114258000D02*
X136059000Y-114258000D01*
X136059000Y-114258000D02*
X136017000Y-114300000D01*
X135975000Y-113030000D02*
X135975000Y-113199000D01*
X135975000Y-113199000D02*
X135128000Y-114046000D01*
X134112000Y-113411000D02*
X132969000Y-113411000D01*
X131148200Y-110520000D02*
X132364000Y-110520000D01*
X132364000Y-110520000D02*
X132588000Y-110744000D01*
X131148200Y-110520000D02*
X128573200Y-110520000D01*
X128573200Y-110520000D02*
X128473200Y-110420000D01*
X128473200Y-105920000D02*
X131048200Y-105920000D01*
X131048200Y-105920000D02*
X131148200Y-106020000D01*
X128473200Y-112520000D02*
X131048200Y-112520000D01*
X131048200Y-112520000D02*
X131148200Y-112420000D01*
X128473200Y-112520000D02*
X128473200Y-111388630D01*
X128473200Y-111388630D02*
X128473200Y-110420000D01*
X128473200Y-105920000D02*
X128473200Y-107051370D01*
X128473200Y-107051370D02*
X128473200Y-108020000D01*
X138920000Y-113891000D02*
X139855000Y-113891000D01*
X139855000Y-113891000D02*
X140335000Y-113411000D01*
X138920000Y-113891000D02*
X139866625Y-113891000D01*
X139866625Y-113891000D02*
X140316023Y-114340398D01*
X138920000Y-114391000D02*
X140265421Y-114391000D01*
X140265421Y-114391000D02*
X140316023Y-114340398D01*
X138920000Y-113391000D02*
X140315000Y-113391000D01*
X140315000Y-113391000D02*
X140335000Y-113411000D01*
X138920000Y-113391000D02*
X137850000Y-113391000D01*
X137850000Y-113391000D02*
X137033000Y-114208000D01*
X137033000Y-114208000D02*
X137033000Y-114258000D01*
X138920000Y-113891000D02*
X137400000Y-113891000D01*
X137400000Y-113891000D02*
X137033000Y-114258000D01*
X138920000Y-114391000D02*
X137166000Y-114391000D01*
X137166000Y-114391000D02*
X137033000Y-114258000D01*
D37*
X152370000Y-122743000D02*
X152370000Y-124091000D01*
X152370000Y-124091000D02*
X152739000Y-124460000D01*
D35*
X131148200Y-107920000D02*
X132026400Y-107920000D01*
X132026400Y-107920000D02*
X132856725Y-107089675D01*
X132856725Y-107089675D02*
X132856725Y-102794725D01*
X132856725Y-102794725D02*
X132080000Y-102018000D01*
X132080000Y-102018000D02*
X132080000Y-101993000D01*
X132080000Y-101993000D02*
X132812000Y-101993000D01*
X132812000Y-101993000D02*
X133477000Y-102658000D01*
X141462000Y-105537000D02*
X141462000Y-104505000D01*
X141097000Y-104140000D02*
X141097000Y-100993757D01*
X141462000Y-104505000D02*
X141097000Y-104140000D01*
X141097000Y-100993757D02*
X139675692Y-99572449D01*
X139675692Y-99572449D02*
X139517200Y-99572449D01*
X135300705Y-99107022D02*
X133477000Y-100930727D01*
X139517200Y-99572449D02*
X139051773Y-99107022D01*
X139051773Y-99107022D02*
X135300705Y-99107022D01*
X133477000Y-100930727D02*
X133477000Y-101558000D01*
D37*
X160197810Y-113030000D02*
X160197810Y-103335168D01*
X160197810Y-103335168D02*
X150758401Y-93895759D01*
X150758401Y-93895759D02*
X150758401Y-93712879D01*
X150758401Y-93712879D02*
X150677121Y-93631599D01*
X140053092Y-93343799D02*
X133459725Y-99937166D01*
X133459725Y-99937166D02*
X133459725Y-101506661D01*
X150677121Y-93631599D02*
X150494241Y-93631599D01*
X140328327Y-93242199D02*
X140226727Y-93343799D01*
X150494241Y-93631599D02*
X150206441Y-93343799D01*
X150206441Y-93343799D02*
X143796073Y-93343799D01*
X143796073Y-93343799D02*
X143694473Y-93242199D01*
X143694473Y-93242199D02*
X140328327Y-93242199D01*
X140226727Y-93343799D02*
X140053092Y-93343799D01*
D35*
X146824000Y-117553302D02*
X146919931Y-117457371D01*
X146824000Y-118745000D02*
X146824000Y-117553302D01*
X153800471Y-119383471D02*
X153419472Y-119002472D01*
X154970000Y-120329800D02*
X154746800Y-120329800D01*
X154746800Y-120329800D02*
X153800471Y-119383471D01*
X154970000Y-120843000D02*
X154970000Y-120329800D01*
X144399000Y-107970000D02*
X144370000Y-107941000D01*
D37*
X154970000Y-120329800D02*
X157226000Y-118073800D01*
X157226000Y-118073800D02*
X157226000Y-114233200D01*
D35*
X157226000Y-114233200D02*
X157226000Y-113030000D01*
D37*
X153839000Y-124460000D02*
X153839000Y-121674000D01*
X153839000Y-121674000D02*
X154670000Y-120843000D01*
D35*
X154670000Y-120843000D02*
X154970000Y-120843000D01*
X141462000Y-105537000D02*
X142833000Y-105537000D01*
X142833000Y-105537000D02*
X143002000Y-105706000D01*
X143002000Y-105706000D02*
X143002000Y-105756000D01*
X143002000Y-105756000D02*
X144379000Y-107133000D01*
X144379000Y-107133000D02*
X144379000Y-107941000D01*
X149733000Y-115582000D02*
X146772363Y-115582000D01*
X146772363Y-115582000D02*
X146110970Y-114920607D01*
X146427162Y-110391000D02*
X147329000Y-110391000D01*
X146110970Y-114920607D02*
X146110970Y-110707192D01*
X146110970Y-110707192D02*
X146427162Y-110391000D01*
X151765000Y-115582000D02*
X149733000Y-115582000D01*
X138414000Y-101639000D02*
X138514000Y-101639000D01*
X137423155Y-102629845D02*
X138414000Y-101639000D01*
X137846236Y-105893298D02*
X137846236Y-104652600D01*
X137846236Y-104652600D02*
X137423155Y-104229518D01*
X137423155Y-104229518D02*
X137423155Y-102629845D01*
X138929000Y-109391000D02*
X138929000Y-106976062D01*
X138929000Y-106976062D02*
X137846236Y-105893298D01*
X138514000Y-101639000D02*
X140000000Y-101639000D01*
X140000000Y-101639000D02*
X140081000Y-101558000D01*
X138430000Y-101220000D02*
X138355000Y-101220000D01*
X145542000Y-105960000D02*
X145542000Y-106600680D01*
X145542000Y-106600680D02*
X145379000Y-106763680D01*
X145379000Y-106763680D02*
X145379000Y-107941000D01*
X144706650Y-114091038D02*
X145870000Y-115254388D01*
X142494000Y-114808000D02*
X143210962Y-114091038D01*
X145870000Y-115254388D02*
X145870000Y-115608157D01*
X143210962Y-114091038D02*
X144706650Y-114091038D01*
X145879000Y-116341000D02*
X145879000Y-118262430D01*
X145879000Y-118262430D02*
X145859068Y-118282362D01*
X145859068Y-118282362D02*
X145859068Y-119458068D01*
X145859068Y-119458068D02*
X147005000Y-120604000D01*
X145704559Y-114844382D02*
X145704559Y-115442716D01*
X143005421Y-112145244D02*
X145704559Y-114844382D01*
X145704559Y-115442716D02*
X145870000Y-115608157D01*
X141370000Y-110345355D02*
X143005421Y-111980776D01*
X141370000Y-107941000D02*
X141370000Y-110345355D01*
X143005421Y-111980776D02*
X143005421Y-112145244D01*
X147005000Y-120604000D02*
X147005000Y-120904000D01*
X150302000Y-99217000D02*
X150302000Y-99517000D01*
X151346800Y-100076000D02*
X151850000Y-100076000D01*
X150302000Y-99517000D02*
X150861000Y-100076000D01*
X150861000Y-100076000D02*
X151346800Y-100076000D01*
X155448000Y-117348000D02*
X155448000Y-116625816D01*
X155448000Y-116625816D02*
X155471777Y-116602039D01*
X155471777Y-116602039D02*
X155471777Y-105941777D01*
X155471777Y-105941777D02*
X150748999Y-101218999D01*
X150748999Y-101218999D02*
X150368000Y-100838000D01*
X151765000Y-117082000D02*
X152827327Y-117082000D01*
X152827327Y-117082000D02*
X152913574Y-116995753D01*
X145870000Y-115608157D02*
X145870000Y-116341000D01*
X137033000Y-115358000D02*
X137710000Y-115358000D01*
X137710000Y-115358000D02*
X138303000Y-115951000D01*
X150368000Y-100838000D02*
X150368000Y-99283000D01*
X150368000Y-99283000D02*
X150302000Y-99217000D01*
X144796000Y-102489000D02*
X144796000Y-100854000D01*
X144796000Y-100854000D02*
X144780000Y-100838000D01*
X137033000Y-115358000D02*
X137033000Y-115308000D01*
X137033000Y-115308000D02*
X137450000Y-114891000D01*
X137450000Y-114891000D02*
X137966800Y-114891000D01*
X137966800Y-114891000D02*
X138920000Y-114891000D01*
X147005000Y-120604000D02*
X147659801Y-119949199D01*
X147659801Y-119949199D02*
X149351001Y-119949199D01*
X149351001Y-119949199D02*
X151765000Y-117535200D01*
X151765000Y-117535200D02*
X151765000Y-117082000D01*
X147005000Y-123063000D02*
X147005000Y-122209800D01*
X147005000Y-122209800D02*
X147005000Y-120904000D01*
X150846000Y-99217000D02*
X151396000Y-98667000D01*
X151396000Y-98667000D02*
X152273000Y-98667000D01*
X150302000Y-99217000D02*
X150846000Y-99217000D01*
X144907000Y-105524200D02*
X144907000Y-103428200D01*
X144907000Y-103428200D02*
X144796000Y-103317200D01*
X144796000Y-103317200D02*
X144796000Y-102489000D01*
X144272000Y-105706000D02*
X144725200Y-105706000D01*
X144725200Y-105706000D02*
X144907000Y-105524200D01*
X143171000Y-102997000D02*
X144288000Y-102997000D01*
X144288000Y-102997000D02*
X144796000Y-102489000D01*
X143171000Y-101600000D02*
X144032000Y-101600000D01*
X144032000Y-101600000D02*
X144796000Y-102364000D01*
X144796000Y-102364000D02*
X144796000Y-102489000D01*
X144272000Y-105706000D02*
X144272000Y-106209200D01*
X144272000Y-106209200D02*
X144879000Y-106816200D01*
X144879000Y-106816200D02*
X144879000Y-106987800D01*
X144879000Y-106987800D02*
X144879000Y-107941000D01*
X144808810Y-107870810D02*
X144879000Y-107941000D01*
X146812000Y-105960000D02*
X146812000Y-106289195D01*
X146812000Y-106289195D02*
X145879000Y-107222195D01*
X145879000Y-107222195D02*
X145879000Y-107941000D01*
X135100787Y-104493787D02*
X134112000Y-103505000D01*
X137591457Y-108780543D02*
X137591457Y-106788021D01*
X138646780Y-99513433D02*
X139327675Y-100194328D01*
X137033000Y-109389000D02*
X137033000Y-109339000D01*
X137033000Y-109339000D02*
X137591457Y-108780543D01*
X136537921Y-104493787D02*
X135100787Y-104493787D01*
X135469045Y-99513433D02*
X138646780Y-99513433D01*
X137591457Y-106788021D02*
X137033414Y-106229978D01*
X137033414Y-106229978D02*
X137033414Y-104989280D01*
X137033414Y-104989280D02*
X136537921Y-104493787D01*
X134112000Y-103505000D02*
X134112000Y-100870478D01*
X134112000Y-100870478D02*
X135469045Y-99513433D01*
X139327675Y-100194328D02*
X139708674Y-100575327D01*
X142071000Y-100713995D02*
X141931240Y-100574235D01*
X142071000Y-101600000D02*
X142071000Y-100713995D01*
X138929000Y-110391000D02*
X137531800Y-110391000D01*
X137531800Y-110391000D02*
X137033000Y-109892200D01*
X137033000Y-109892200D02*
X137033000Y-109389000D01*
X137439825Y-106061637D02*
X137439825Y-104820940D01*
X138929000Y-109891000D02*
X137975800Y-109891000D01*
X137865190Y-109212967D02*
X138116967Y-108961190D01*
X137439825Y-104820940D02*
X136314000Y-103695114D01*
X138116967Y-108961190D02*
X138116967Y-106738779D01*
X138116967Y-106738779D02*
X137439825Y-106061637D01*
X137865190Y-109569033D02*
X137865190Y-109212967D01*
X137975800Y-109891000D02*
X138081479Y-109785322D01*
X138081479Y-109785322D02*
X137865190Y-109569033D01*
X136314000Y-103695114D02*
X136314000Y-103339000D01*
X136314000Y-103339000D02*
X135428000Y-103339000D01*
X135428000Y-103339000D02*
X134747000Y-102658000D01*
X139974810Y-109212967D02*
X139974810Y-109529784D01*
X140082292Y-106590350D02*
X139809851Y-106590350D01*
X139335410Y-107064791D02*
X139335410Y-108573567D01*
X139809851Y-106590350D02*
X139335410Y-107064791D01*
X140335000Y-106337642D02*
X140082292Y-106590350D01*
X140335000Y-103759000D02*
X140335000Y-106337642D01*
X139335410Y-108573567D02*
X139974810Y-109212967D01*
X139974810Y-109529784D02*
X142440909Y-111995883D01*
X142440909Y-111995883D02*
X142440909Y-112534698D01*
X141986000Y-103886000D02*
X141986000Y-103082000D01*
X141986000Y-103082000D02*
X142071000Y-102997000D01*
X138920000Y-112891000D02*
X139873200Y-112891000D01*
X139873200Y-112891000D02*
X140242200Y-112522000D01*
X140242200Y-112522000D02*
X140970000Y-112522000D01*
X137075000Y-113030000D02*
X137214000Y-112891000D01*
X137214000Y-112891000D02*
X138920000Y-112891000D01*
X133997000Y-109728000D02*
X133997000Y-111518000D01*
X133997000Y-111518000D02*
X134112000Y-111633000D01*
X132334000Y-109220000D02*
X132842000Y-109728000D01*
X132842000Y-109728000D02*
X133997000Y-109728000D01*
X131148200Y-109220000D02*
X132334000Y-109220000D01*
X133997000Y-107950000D02*
X133997000Y-106541000D01*
X133997000Y-106541000D02*
X134239000Y-106299000D01*
X132349000Y-108570000D02*
X132969000Y-107950000D01*
X132969000Y-107950000D02*
X133997000Y-107950000D01*
X131148200Y-108570000D02*
X132349000Y-108570000D01*
X150279100Y-108623100D02*
X150177499Y-108724701D01*
X151028400Y-108623100D02*
X150279100Y-108623100D01*
X150177499Y-108724701D02*
X150177499Y-109495701D01*
X150177499Y-109495701D02*
X149415634Y-110257566D01*
X149198078Y-110257566D02*
X148064644Y-111391000D01*
X149415634Y-110257566D02*
X149198078Y-110257566D01*
X148064644Y-111391000D02*
X147329000Y-111391000D01*
X154368500Y-108623100D02*
X154658956Y-108913556D01*
X148905000Y-122763000D02*
X148905000Y-123063000D01*
X149559801Y-121317497D02*
X149559801Y-122108199D01*
X154658956Y-116265359D02*
X153242760Y-117681555D01*
X149559801Y-122108199D02*
X148905000Y-122763000D01*
X153195743Y-117681555D02*
X149559801Y-121317497D01*
X154658956Y-108913556D02*
X154658956Y-116265359D01*
X153242760Y-117681555D02*
X153195743Y-117681555D01*
X153619200Y-108623100D02*
X154368500Y-108623100D01*
X153619200Y-109816900D02*
X152442807Y-109816900D01*
X152442807Y-109816900D02*
X151599385Y-110660322D01*
X149219091Y-112391000D02*
X147329000Y-112391000D01*
X151599385Y-110660322D02*
X151599385Y-110669611D01*
X151599385Y-110669611D02*
X150940480Y-110669611D01*
X150940480Y-110669611D02*
X149219091Y-112391000D01*
X148250199Y-123956841D02*
X148250199Y-121858801D01*
X148250199Y-121858801D02*
X148905000Y-121204000D01*
X153411100Y-118087966D02*
X153364083Y-118087966D01*
X153064758Y-107666242D02*
X154529242Y-107666242D01*
X148311159Y-124017801D02*
X148250199Y-123956841D01*
X149966211Y-123550431D02*
X149498841Y-124017801D01*
X149966212Y-121485836D02*
X149966211Y-123550431D01*
X155065367Y-116433699D02*
X153411100Y-118087966D01*
X149498841Y-124017801D02*
X148311159Y-124017801D01*
X155065367Y-108202367D02*
X155065367Y-116433699D01*
X154529242Y-107666242D02*
X155065367Y-108202367D01*
X152400000Y-108331000D02*
X153064758Y-107666242D01*
X151028400Y-109816900D02*
X151777700Y-109816900D01*
X152400000Y-109194600D02*
X152400000Y-108331000D01*
X151777700Y-109816900D02*
X152400000Y-109194600D01*
X148905000Y-121204000D02*
X148905000Y-120904000D01*
X153364083Y-118087966D02*
X149966212Y-121485836D01*
X152273000Y-97167000D02*
X150852000Y-97167000D01*
X150852000Y-97167000D02*
X150302000Y-96617000D01*
X150102000Y-94488000D02*
X150102000Y-96417000D01*
X150102000Y-96417000D02*
X150302000Y-96617000D01*
X145938949Y-109294219D02*
X146547409Y-108685759D01*
X147848159Y-98302199D02*
X148263347Y-98302199D01*
X148616869Y-100900511D02*
X147787199Y-100070841D01*
X148263347Y-98302199D02*
X148402000Y-98163546D01*
X144485380Y-109294219D02*
X145938949Y-109294219D01*
X147787199Y-98363159D02*
X147848159Y-98302199D01*
X147787199Y-100070841D02*
X147787199Y-98363159D01*
X148263347Y-103184196D02*
X148616869Y-102830674D01*
X148402000Y-98163546D02*
X148402000Y-97430200D01*
X148402000Y-97430200D02*
X148402000Y-96617000D01*
X142868365Y-109760462D02*
X143224981Y-110117078D01*
X146547409Y-108685759D02*
X146547409Y-107937770D01*
X142868365Y-108895835D02*
X142868365Y-109760462D01*
X146547409Y-107937770D02*
X148263347Y-106221832D01*
X143224981Y-110117078D02*
X143662521Y-110117078D01*
X142870000Y-107941000D02*
X142870000Y-108894200D01*
X143662521Y-110117078D02*
X144485380Y-109294219D01*
X142870000Y-108894200D02*
X142868365Y-108895835D01*
X148616869Y-102830674D02*
X148616869Y-100900511D01*
X148263347Y-106221832D02*
X148263347Y-103184196D01*
X148602000Y-94488000D02*
X148602000Y-96417000D01*
X148602000Y-96417000D02*
X148402000Y-96617000D01*
X148324000Y-118745000D02*
X149733000Y-118745000D01*
X151461557Y-116136801D02*
X152356735Y-116136801D01*
X151010199Y-117467801D02*
X151010199Y-116588159D01*
X152515434Y-111511348D02*
X152134435Y-111130349D01*
X149733000Y-118745000D02*
X151010199Y-117467801D01*
X151010199Y-116588159D02*
X151461557Y-116136801D01*
X152540205Y-111536119D02*
X152515434Y-111511348D01*
X152356735Y-116136801D02*
X152540205Y-115953331D01*
X152540205Y-115953331D02*
X152540205Y-111536119D01*
X148899582Y-111525958D02*
X149280581Y-111144959D01*
X147320000Y-111891000D02*
X148534540Y-111891000D01*
X148534540Y-111891000D02*
X148899582Y-111525958D01*
X136271000Y-108270800D02*
X136271000Y-110363000D01*
X136271000Y-110363000D02*
X137799000Y-111891000D01*
X137799000Y-111891000D02*
X137975800Y-111891000D01*
X137975800Y-111891000D02*
X138929000Y-111891000D01*
X135497000Y-107950000D02*
X135950200Y-107950000D01*
X135950200Y-107950000D02*
X136271000Y-108270800D01*
X135497000Y-109728000D02*
X135497000Y-110381200D01*
X135497000Y-110381200D02*
X137510800Y-112395000D01*
X137510800Y-112395000D02*
X138938000Y-112395000D01*
X136882000Y-116967000D02*
X138506136Y-116967000D01*
X141773505Y-112882280D02*
X141755108Y-112863883D01*
X138935812Y-111406812D02*
X138920000Y-111391000D01*
X141755108Y-112038334D02*
X141123586Y-111406812D01*
X141755108Y-112863883D02*
X141755108Y-112038334D01*
X141123586Y-111406812D02*
X138935812Y-111406812D01*
X141773505Y-115010312D02*
X141773505Y-112882280D01*
X138506136Y-116967000D02*
X140462824Y-115010312D01*
X140462824Y-115010312D02*
X141773505Y-115010312D01*
X144769674Y-111048542D02*
X145308489Y-111048542D01*
X142867057Y-111048542D02*
X144769674Y-111048542D01*
X141870000Y-110051485D02*
X142867057Y-111048542D01*
X141870000Y-107941000D02*
X141870000Y-110051485D01*
X149352000Y-99217000D02*
X149452558Y-99317558D01*
X149452558Y-99317558D02*
X149452558Y-106881008D01*
X149452558Y-106881008D02*
X149001362Y-107332204D01*
X149001362Y-107332204D02*
X148620363Y-107713203D01*
X144398530Y-110622179D02*
X144779529Y-110241180D01*
X142370000Y-107941000D02*
X142370000Y-109836848D01*
X143155331Y-110622179D02*
X144398530Y-110622179D01*
X142370000Y-109836848D02*
X143155331Y-110622179D01*
X148857952Y-106201977D02*
X148857952Y-103173087D01*
X148857952Y-103173087D02*
X149023280Y-103007759D01*
X147614209Y-107445720D02*
X148857952Y-106201977D01*
X147614209Y-107863208D02*
X147614209Y-107445720D01*
X147233210Y-108244207D02*
X147614209Y-107863208D01*
X149023280Y-100651480D02*
X148402000Y-100030200D01*
X149023280Y-103007759D02*
X149023280Y-100651480D01*
X148402000Y-100030200D02*
X148402000Y-99217000D01*
X159512000Y-118501000D02*
X159512000Y-112526000D01*
X159512000Y-112526000D02*
X157476000Y-110490000D01*
X157476000Y-110490000D02*
X157226000Y-110490000D01*
X154970000Y-122743000D02*
X155270000Y-122743000D01*
X155270000Y-122743000D02*
X159512000Y-118501000D01*
X156976000Y-110490000D02*
X157226000Y-110490000D01*
X140870000Y-116341000D02*
X140870000Y-117094000D01*
X140870000Y-117094000D02*
X140870000Y-117629000D01*
X150372620Y-123718772D02*
X149667181Y-124424211D01*
X152370000Y-121793000D02*
X151556800Y-121793000D01*
X149667181Y-124424211D02*
X146817569Y-124424211D01*
X146817569Y-124424211D02*
X145416201Y-123022843D01*
X150372621Y-122977179D02*
X150372620Y-123718772D01*
X145416201Y-123022843D02*
X145416201Y-119570776D01*
X151556800Y-121793000D02*
X150372621Y-122977179D01*
X145416201Y-119570776D02*
X144113991Y-118268566D01*
X144113991Y-118268566D02*
X140244878Y-118268566D01*
X140244878Y-118268566D02*
X139934921Y-117958609D01*
X139934921Y-117958609D02*
X139934921Y-116785079D01*
X139934921Y-116785079D02*
X140379000Y-116341000D01*
D38*
G36*
X147609910Y-119646441D02*
X147701000Y-119708680D01*
X147701000Y-121380366D01*
X147569669Y-121576916D01*
X147513599Y-121858801D01*
X147513599Y-123687611D01*
X147122679Y-123687611D01*
X146152801Y-122717733D01*
X146152801Y-119675747D01*
X146322110Y-119791431D01*
X146574000Y-119842440D01*
X147074000Y-119842440D01*
X147309317Y-119798162D01*
X147525441Y-119659090D01*
X147573134Y-119589289D01*
X147609910Y-119646441D01*
X147609910Y-119646441D01*
G37*
X147609910Y-119646441D02*
X147701000Y-119708680D01*
X147701000Y-121380366D01*
X147569669Y-121576916D01*
X147513599Y-121858801D01*
X147513599Y-123687611D01*
X147122679Y-123687611D01*
X146152801Y-122717733D01*
X146152801Y-119675747D01*
X146322110Y-119791431D01*
X146574000Y-119842440D01*
X147074000Y-119842440D01*
X147309317Y-119798162D01*
X147525441Y-119659090D01*
X147573134Y-119589289D01*
X147609910Y-119646441D01*
G36*
X145903755Y-117658579D02*
X146030582Y-117965523D01*
X145977569Y-118043110D01*
X145926560Y-118295000D01*
X145926560Y-119039425D01*
X145471395Y-118584260D01*
X145414626Y-117846260D01*
X145400860Y-117797762D01*
X145369311Y-117758442D01*
X145353339Y-117749820D01*
X145370000Y-117753134D01*
X145660839Y-117695282D01*
X145903864Y-117532898D01*
X145903755Y-117658579D01*
X145903755Y-117658579D01*
G37*
X145903755Y-117658579D02*
X146030582Y-117965523D01*
X145977569Y-118043110D01*
X145926560Y-118295000D01*
X145926560Y-119039425D01*
X145471395Y-118584260D01*
X145414626Y-117846260D01*
X145400860Y-117797762D01*
X145369311Y-117758442D01*
X145353339Y-117749820D01*
X145370000Y-117753134D01*
X145660839Y-117695282D01*
X145903864Y-117532898D01*
X145903755Y-117658579D01*
G36*
X138267866Y-115151000D02*
X139280426Y-115151000D01*
X138201026Y-116230400D01*
X137702162Y-116230400D01*
X137596090Y-116065559D01*
X137383890Y-115920569D01*
X137132000Y-115869560D01*
X136779000Y-115869560D01*
X136779000Y-115204630D01*
X136783000Y-115205440D01*
X137283000Y-115205440D01*
X137518317Y-115161162D01*
X137570474Y-115127600D01*
X138150227Y-115127600D01*
X138267866Y-115151000D01*
X138267866Y-115151000D01*
G37*
X138267866Y-115151000D02*
X139280426Y-115151000D01*
X138201026Y-116230400D01*
X137702162Y-116230400D01*
X137596090Y-116065559D01*
X137383890Y-115920569D01*
X137132000Y-115869560D01*
X136779000Y-115869560D01*
X136779000Y-115204630D01*
X136783000Y-115205440D01*
X137283000Y-115205440D01*
X137518317Y-115161162D01*
X137570474Y-115127600D01*
X138150227Y-115127600D01*
X138267866Y-115151000D01*
G36*
X144732220Y-111909363D02*
X145105507Y-112064366D01*
X145374370Y-112064600D01*
X145374370Y-114635034D01*
X145260825Y-114360234D01*
X144975269Y-114074179D01*
X144601982Y-113919176D01*
X144197792Y-113918824D01*
X143824234Y-114073175D01*
X143538179Y-114358731D01*
X143383176Y-114732018D01*
X143383002Y-114931452D01*
X143370000Y-114928866D01*
X143120000Y-114978595D01*
X142870000Y-114928866D01*
X142620000Y-114978595D01*
X142510105Y-114956735D01*
X142510105Y-113550759D01*
X142642117Y-113550874D01*
X143015675Y-113396523D01*
X143301730Y-113110967D01*
X143456733Y-112737680D01*
X143457085Y-112333490D01*
X143302734Y-111959932D01*
X143137417Y-111794326D01*
X143135590Y-111785142D01*
X144608216Y-111785142D01*
X144732220Y-111909363D01*
X144732220Y-111909363D01*
G37*
X144732220Y-111909363D02*
X145105507Y-112064366D01*
X145374370Y-112064600D01*
X145374370Y-114635034D01*
X145260825Y-114360234D01*
X144975269Y-114074179D01*
X144601982Y-113919176D01*
X144197792Y-113918824D01*
X143824234Y-114073175D01*
X143538179Y-114358731D01*
X143383176Y-114732018D01*
X143383002Y-114931452D01*
X143370000Y-114928866D01*
X143120000Y-114978595D01*
X142870000Y-114928866D01*
X142620000Y-114978595D01*
X142510105Y-114956735D01*
X142510105Y-113550759D01*
X142642117Y-113550874D01*
X143015675Y-113396523D01*
X143301730Y-113110967D01*
X143456733Y-112737680D01*
X143457085Y-112333490D01*
X143302734Y-111959932D01*
X143137417Y-111794326D01*
X143135590Y-111785142D01*
X144608216Y-111785142D01*
X144732220Y-111909363D01*
G36*
X144644560Y-105660000D02*
X144644560Y-106260000D01*
X144667007Y-106379297D01*
X143899440Y-105611730D01*
X143899440Y-105528621D01*
X144022000Y-105553440D01*
X144522000Y-105553440D01*
X144671849Y-105525244D01*
X144644560Y-105660000D01*
X144644560Y-105660000D01*
G37*
X144644560Y-105660000D02*
X144644560Y-106260000D01*
X144667007Y-106379297D01*
X143899440Y-105611730D01*
X143899440Y-105528621D01*
X144022000Y-105553440D01*
X144522000Y-105553440D01*
X144671849Y-105525244D01*
X144644560Y-105660000D01*
G36*
X147701000Y-101026352D02*
X147701000Y-101372185D01*
X147547890Y-101267569D01*
X147296000Y-101216560D01*
X146296000Y-101216560D01*
X146060683Y-101260838D01*
X145844559Y-101399910D01*
X145699569Y-101612110D01*
X145648560Y-101864000D01*
X145648560Y-102870048D01*
X145391602Y-102869824D01*
X145018044Y-103024175D01*
X144970557Y-103071579D01*
X144797459Y-102898179D01*
X144424172Y-102743176D01*
X144019982Y-102742824D01*
X143646424Y-102897175D01*
X143611920Y-102931619D01*
X143331982Y-102815378D01*
X143018440Y-102815105D01*
X143018440Y-102747000D01*
X142974162Y-102511683D01*
X142835096Y-102295569D01*
X142967431Y-102101890D01*
X143018440Y-101850000D01*
X143018440Y-101350000D01*
X142974162Y-101114683D01*
X142872523Y-100956731D01*
X142947064Y-100777217D01*
X142947122Y-100711000D01*
X147385648Y-100711000D01*
X147701000Y-101026352D01*
X147701000Y-101026352D01*
G37*
X147701000Y-101026352D02*
X147701000Y-101372185D01*
X147547890Y-101267569D01*
X147296000Y-101216560D01*
X146296000Y-101216560D01*
X146060683Y-101260838D01*
X145844559Y-101399910D01*
X145699569Y-101612110D01*
X145648560Y-101864000D01*
X145648560Y-102870048D01*
X145391602Y-102869824D01*
X145018044Y-103024175D01*
X144970557Y-103071579D01*
X144797459Y-102898179D01*
X144424172Y-102743176D01*
X144019982Y-102742824D01*
X143646424Y-102897175D01*
X143611920Y-102931619D01*
X143331982Y-102815378D01*
X143018440Y-102815105D01*
X143018440Y-102747000D01*
X142974162Y-102511683D01*
X142835096Y-102295569D01*
X142967431Y-102101890D01*
X143018440Y-101850000D01*
X143018440Y-101350000D01*
X142974162Y-101114683D01*
X142872523Y-100956731D01*
X142947064Y-100777217D01*
X142947122Y-100711000D01*
X147385648Y-100711000D01*
X147701000Y-101026352D01*
M02*
