G04 #@! TF.FileFunction,Legend,Top*
%FSLAX46Y46*%
G04 Gerber Fmt 4.6, Leading zero omitted, Abs format (unit mm)*
G04 Created by KiCad (PCBNEW 4.0.1-stable) date 3/25/2016 9:26:44 PM*
%MOMM*%
G01*
G04 APERTURE LIST*
%ADD10C,0.150000*%
%ADD11C,0.300000*%
G04 APERTURE END LIST*
D10*
D11*
X151507143Y-122450000D02*
X151364286Y-122378571D01*
X151150000Y-122378571D01*
X150935715Y-122450000D01*
X150792857Y-122592857D01*
X150721429Y-122735714D01*
X150650000Y-123021429D01*
X150650000Y-123235714D01*
X150721429Y-123521429D01*
X150792857Y-123664286D01*
X150935715Y-123807143D01*
X151150000Y-123878571D01*
X151292857Y-123878571D01*
X151507143Y-123807143D01*
X151578572Y-123735714D01*
X151578572Y-123235714D01*
X151292857Y-123235714D01*
X152221429Y-123878571D02*
X152221429Y-122378571D01*
X153078572Y-123878571D01*
X153078572Y-122378571D01*
X153792858Y-123878571D02*
X153792858Y-122378571D01*
X154150001Y-122378571D01*
X154364286Y-122450000D01*
X154507144Y-122592857D01*
X154578572Y-122735714D01*
X154650001Y-123021429D01*
X154650001Y-123235714D01*
X154578572Y-123521429D01*
X154507144Y-123664286D01*
X154364286Y-123807143D01*
X154150001Y-123878571D01*
X153792858Y-123878571D01*
X152050000Y-94578571D02*
X152050000Y-95578571D01*
X151692857Y-94007143D02*
X151335714Y-95078571D01*
X152264286Y-95078571D01*
X153978571Y-95007143D02*
X155121428Y-95007143D01*
X157764285Y-94150000D02*
X157621428Y-94078571D01*
X157407142Y-94078571D01*
X157192857Y-94150000D01*
X157049999Y-94292857D01*
X156978571Y-94435714D01*
X156907142Y-94721429D01*
X156907142Y-94935714D01*
X156978571Y-95221429D01*
X157049999Y-95364286D01*
X157192857Y-95507143D01*
X157407142Y-95578571D01*
X157549999Y-95578571D01*
X157764285Y-95507143D01*
X157835714Y-95435714D01*
X157835714Y-94935714D01*
X157549999Y-94935714D01*
X158478571Y-95578571D02*
X158478571Y-94078571D01*
X159335714Y-95578571D01*
X159335714Y-94078571D01*
X160050000Y-95578571D02*
X160050000Y-94078571D01*
X160407143Y-94078571D01*
X160621428Y-94150000D01*
X160764286Y-94292857D01*
X160835714Y-94435714D01*
X160907143Y-94721429D01*
X160907143Y-94935714D01*
X160835714Y-95221429D01*
X160764286Y-95364286D01*
X160621428Y-95507143D01*
X160407143Y-95578571D01*
X160050000Y-95578571D01*
X151264286Y-96478571D02*
X152192857Y-96478571D01*
X151692857Y-97050000D01*
X151907143Y-97050000D01*
X152050000Y-97121429D01*
X152121429Y-97192857D01*
X152192857Y-97335714D01*
X152192857Y-97692857D01*
X152121429Y-97835714D01*
X152050000Y-97907143D01*
X151907143Y-97978571D01*
X151478571Y-97978571D01*
X151335714Y-97907143D01*
X151264286Y-97835714D01*
X153978571Y-97407143D02*
X155121428Y-97407143D01*
X157835714Y-97978571D02*
X157335714Y-97264286D01*
X156978571Y-97978571D02*
X156978571Y-96478571D01*
X157549999Y-96478571D01*
X157692857Y-96550000D01*
X157764285Y-96621429D01*
X157835714Y-96764286D01*
X157835714Y-96978571D01*
X157764285Y-97121429D01*
X157692857Y-97192857D01*
X157549999Y-97264286D01*
X156978571Y-97264286D01*
X158335714Y-97978571D02*
X159121428Y-96978571D01*
X158335714Y-96978571D02*
X159121428Y-97978571D01*
X151335714Y-99021429D02*
X151407143Y-98950000D01*
X151550000Y-98878571D01*
X151907143Y-98878571D01*
X152050000Y-98950000D01*
X152121429Y-99021429D01*
X152192857Y-99164286D01*
X152192857Y-99307143D01*
X152121429Y-99521429D01*
X151264286Y-100378571D01*
X152192857Y-100378571D01*
X153978571Y-99807143D02*
X155121428Y-99807143D01*
X156764285Y-98878571D02*
X157621428Y-98878571D01*
X157192857Y-100378571D02*
X157192857Y-98878571D01*
X157978571Y-100378571D02*
X158764285Y-99378571D01*
X157978571Y-99378571D02*
X158764285Y-100378571D01*
X152192857Y-102778571D02*
X151335714Y-102778571D01*
X151764286Y-102778571D02*
X151764286Y-101278571D01*
X151621429Y-101492857D01*
X151478571Y-101635714D01*
X151335714Y-101707143D01*
X153978571Y-102207143D02*
X155121428Y-102207143D01*
X156978571Y-102207143D02*
X158121428Y-102207143D01*
X157549999Y-102778571D02*
X157549999Y-101635714D01*
X159550000Y-101278571D02*
X158835714Y-101278571D01*
X158764285Y-101992857D01*
X158835714Y-101921429D01*
X158978571Y-101850000D01*
X159335714Y-101850000D01*
X159478571Y-101921429D01*
X159550000Y-101992857D01*
X159621428Y-102135714D01*
X159621428Y-102492857D01*
X159550000Y-102635714D01*
X159478571Y-102707143D01*
X159335714Y-102778571D01*
X158978571Y-102778571D01*
X158835714Y-102707143D01*
X158764285Y-102635714D01*
X160049999Y-101278571D02*
X160549999Y-102778571D01*
X161049999Y-101278571D01*
D10*
X152723800Y-114720000D02*
X152723800Y-110920000D01*
X152723800Y-114720000D02*
X148723800Y-114720000D01*
X148723800Y-114720000D02*
X148723800Y-103720000D01*
X148723800Y-103720000D02*
X152623800Y-103720000D01*
X152623800Y-103720000D02*
X152623800Y-107520000D01*
X154123800Y-110420000D02*
X150523800Y-110420000D01*
X154023800Y-108020000D02*
X150223800Y-108020000D01*
X150223800Y-108020000D02*
X150223800Y-108920000D01*
X139150000Y-102750000D02*
X139150000Y-101750000D01*
X137450000Y-101750000D02*
X137450000Y-102750000D01*
X133800000Y-102100000D02*
X133800000Y-102800000D01*
X132600000Y-102800000D02*
X132600000Y-102100000D01*
X143450000Y-103175000D02*
X142950000Y-103175000D01*
X142950000Y-104125000D02*
X143450000Y-104125000D01*
X138075000Y-114400000D02*
X138075000Y-114900000D01*
X139025000Y-114900000D02*
X139025000Y-114400000D01*
X134650000Y-110000000D02*
X134650000Y-112300000D01*
X133650000Y-110000000D02*
X133650000Y-112300000D01*
X133650000Y-107800000D02*
X133650000Y-105500000D01*
X134650000Y-107800000D02*
X134650000Y-105500000D01*
X135350000Y-103775000D02*
X135850000Y-103775000D01*
X135850000Y-102825000D02*
X135350000Y-102825000D01*
X130673200Y-113420000D02*
X132073200Y-113420000D01*
X132073200Y-113420000D02*
X132073200Y-111820000D01*
X130673200Y-105020000D02*
X132073200Y-105020000D01*
X132073200Y-105020000D02*
X132073200Y-106620000D01*
X127023200Y-105220000D02*
X127023200Y-113220000D01*
X140550000Y-114575000D02*
X141050000Y-114575000D01*
X141050000Y-113625000D02*
X140550000Y-113625000D01*
X161580000Y-114470000D02*
X158780000Y-114470000D01*
X161580000Y-104310000D02*
X158780000Y-104310000D01*
X161580000Y-114470000D02*
X161580000Y-104310000D01*
X158780000Y-104310000D02*
X158780000Y-114470000D01*
X147650000Y-98725000D02*
X148850000Y-98725000D01*
X148850000Y-100475000D02*
X147650000Y-100475000D01*
X147650000Y-100925000D02*
X148850000Y-100925000D01*
X148850000Y-102675000D02*
X147650000Y-102675000D01*
X146325000Y-107700000D02*
X145075000Y-106725000D01*
X146325000Y-111075000D02*
X146325000Y-107725000D01*
X145075000Y-106725000D02*
X136615000Y-106725000D01*
X136615000Y-106725000D02*
X136615000Y-111075000D01*
X136615000Y-111075000D02*
X146325000Y-111075000D01*
X153312905Y-112212381D02*
X153312905Y-111212381D01*
X153551000Y-111212381D01*
X153693858Y-111260000D01*
X153789096Y-111355238D01*
X153836715Y-111450476D01*
X153884334Y-111640952D01*
X153884334Y-111783810D01*
X153836715Y-111974286D01*
X153789096Y-112069524D01*
X153693858Y-112164762D01*
X153551000Y-112212381D01*
X153312905Y-112212381D01*
X154836715Y-112212381D02*
X154265286Y-112212381D01*
X154551000Y-112212381D02*
X154551000Y-111212381D01*
X154455762Y-111355238D01*
X154360524Y-111450476D01*
X154265286Y-111498095D01*
X140557143Y-101566666D02*
X140604762Y-101614285D01*
X140652381Y-101757142D01*
X140652381Y-101852380D01*
X140604762Y-101995238D01*
X140509524Y-102090476D01*
X140414286Y-102138095D01*
X140223810Y-102185714D01*
X140080952Y-102185714D01*
X139890476Y-102138095D01*
X139795238Y-102090476D01*
X139700000Y-101995238D01*
X139652381Y-101852380D01*
X139652381Y-101757142D01*
X139700000Y-101614285D01*
X139747619Y-101566666D01*
X139985714Y-100709523D02*
X140652381Y-100709523D01*
X139604762Y-100947619D02*
X140319048Y-101185714D01*
X140319048Y-100566666D01*
X132057143Y-102566666D02*
X132104762Y-102614285D01*
X132152381Y-102757142D01*
X132152381Y-102852380D01*
X132104762Y-102995238D01*
X132009524Y-103090476D01*
X131914286Y-103138095D01*
X131723810Y-103185714D01*
X131580952Y-103185714D01*
X131390476Y-103138095D01*
X131295238Y-103090476D01*
X131200000Y-102995238D01*
X131152381Y-102852380D01*
X131152381Y-102757142D01*
X131200000Y-102614285D01*
X131247619Y-102566666D01*
X132152381Y-101614285D02*
X132152381Y-102185714D01*
X132152381Y-101900000D02*
X131152381Y-101900000D01*
X131295238Y-101995238D01*
X131390476Y-102090476D01*
X131438095Y-102185714D01*
X143083334Y-102407143D02*
X143035715Y-102454762D01*
X142892858Y-102502381D01*
X142797620Y-102502381D01*
X142654762Y-102454762D01*
X142559524Y-102359524D01*
X142511905Y-102264286D01*
X142464286Y-102073810D01*
X142464286Y-101930952D01*
X142511905Y-101740476D01*
X142559524Y-101645238D01*
X142654762Y-101550000D01*
X142797620Y-101502381D01*
X142892858Y-101502381D01*
X143035715Y-101550000D01*
X143083334Y-101597619D01*
X143464286Y-101597619D02*
X143511905Y-101550000D01*
X143607143Y-101502381D01*
X143845239Y-101502381D01*
X143940477Y-101550000D01*
X143988096Y-101597619D01*
X144035715Y-101692857D01*
X144035715Y-101788095D01*
X143988096Y-101930952D01*
X143416667Y-102502381D01*
X144035715Y-102502381D01*
X138957143Y-117016666D02*
X139004762Y-117064285D01*
X139052381Y-117207142D01*
X139052381Y-117302380D01*
X139004762Y-117445238D01*
X138909524Y-117540476D01*
X138814286Y-117588095D01*
X138623810Y-117635714D01*
X138480952Y-117635714D01*
X138290476Y-117588095D01*
X138195238Y-117540476D01*
X138100000Y-117445238D01*
X138052381Y-117302380D01*
X138052381Y-117207142D01*
X138100000Y-117064285D01*
X138147619Y-117016666D01*
X138052381Y-116111904D02*
X138052381Y-116588095D01*
X138528571Y-116635714D01*
X138480952Y-116588095D01*
X138433333Y-116492857D01*
X138433333Y-116254761D01*
X138480952Y-116159523D01*
X138528571Y-116111904D01*
X138623810Y-116064285D01*
X138861905Y-116064285D01*
X138957143Y-116111904D01*
X139004762Y-116159523D01*
X139052381Y-116254761D01*
X139052381Y-116492857D01*
X139004762Y-116588095D01*
X138957143Y-116635714D01*
X135857143Y-111816666D02*
X135904762Y-111864285D01*
X135952381Y-112007142D01*
X135952381Y-112102380D01*
X135904762Y-112245238D01*
X135809524Y-112340476D01*
X135714286Y-112388095D01*
X135523810Y-112435714D01*
X135380952Y-112435714D01*
X135190476Y-112388095D01*
X135095238Y-112340476D01*
X135000000Y-112245238D01*
X134952381Y-112102380D01*
X134952381Y-112007142D01*
X135000000Y-111864285D01*
X135047619Y-111816666D01*
X135952381Y-110816666D02*
X135476190Y-111150000D01*
X135952381Y-111388095D02*
X134952381Y-111388095D01*
X134952381Y-111007142D01*
X135000000Y-110911904D01*
X135047619Y-110864285D01*
X135142857Y-110816666D01*
X135285714Y-110816666D01*
X135380952Y-110864285D01*
X135428571Y-110911904D01*
X135476190Y-111007142D01*
X135476190Y-111388095D01*
X135952381Y-109864285D02*
X135952381Y-110435714D01*
X135952381Y-110150000D02*
X134952381Y-110150000D01*
X135095238Y-110245238D01*
X135190476Y-110340476D01*
X135238095Y-110435714D01*
X135957143Y-107466666D02*
X136004762Y-107514285D01*
X136052381Y-107657142D01*
X136052381Y-107752380D01*
X136004762Y-107895238D01*
X135909524Y-107990476D01*
X135814286Y-108038095D01*
X135623810Y-108085714D01*
X135480952Y-108085714D01*
X135290476Y-108038095D01*
X135195238Y-107990476D01*
X135100000Y-107895238D01*
X135052381Y-107752380D01*
X135052381Y-107657142D01*
X135100000Y-107514285D01*
X135147619Y-107466666D01*
X136052381Y-106466666D02*
X135576190Y-106800000D01*
X136052381Y-107038095D02*
X135052381Y-107038095D01*
X135052381Y-106657142D01*
X135100000Y-106561904D01*
X135147619Y-106514285D01*
X135242857Y-106466666D01*
X135385714Y-106466666D01*
X135480952Y-106514285D01*
X135528571Y-106561904D01*
X135576190Y-106657142D01*
X135576190Y-107038095D01*
X135147619Y-106085714D02*
X135100000Y-106038095D01*
X135052381Y-105942857D01*
X135052381Y-105704761D01*
X135100000Y-105609523D01*
X135147619Y-105561904D01*
X135242857Y-105514285D01*
X135338095Y-105514285D01*
X135480952Y-105561904D01*
X136052381Y-106133333D01*
X136052381Y-105514285D01*
X135433334Y-102302381D02*
X134957143Y-102302381D01*
X134957143Y-101302381D01*
X136290477Y-102302381D02*
X135719048Y-102302381D01*
X136004762Y-102302381D02*
X136004762Y-101302381D01*
X135909524Y-101445238D01*
X135814286Y-101540476D01*
X135719048Y-101588095D01*
X131202381Y-115333333D02*
X131916667Y-115333333D01*
X132059524Y-115380953D01*
X132154762Y-115476191D01*
X132202381Y-115619048D01*
X132202381Y-115714286D01*
X132202381Y-114333333D02*
X132202381Y-114904762D01*
X132202381Y-114619048D02*
X131202381Y-114619048D01*
X131345238Y-114714286D01*
X131440476Y-114809524D01*
X131488095Y-114904762D01*
X140633334Y-116157143D02*
X140585715Y-116204762D01*
X140442858Y-116252381D01*
X140347620Y-116252381D01*
X140204762Y-116204762D01*
X140109524Y-116109524D01*
X140061905Y-116014286D01*
X140014286Y-115823810D01*
X140014286Y-115680952D01*
X140061905Y-115490476D01*
X140109524Y-115395238D01*
X140204762Y-115300000D01*
X140347620Y-115252381D01*
X140442858Y-115252381D01*
X140585715Y-115300000D01*
X140633334Y-115347619D01*
X140966667Y-115252381D02*
X141585715Y-115252381D01*
X141252381Y-115633333D01*
X141395239Y-115633333D01*
X141490477Y-115680952D01*
X141538096Y-115728571D01*
X141585715Y-115823810D01*
X141585715Y-116061905D01*
X141538096Y-116157143D01*
X141490477Y-116204762D01*
X141395239Y-116252381D01*
X141109524Y-116252381D01*
X141014286Y-116204762D01*
X140966667Y-116157143D01*
X157166667Y-122252381D02*
X157166667Y-122966667D01*
X157119047Y-123109524D01*
X157023809Y-123204762D01*
X156880952Y-123252381D01*
X156785714Y-123252381D01*
X157595238Y-122347619D02*
X157642857Y-122300000D01*
X157738095Y-122252381D01*
X157976191Y-122252381D01*
X158071429Y-122300000D01*
X158119048Y-122347619D01*
X158166667Y-122442857D01*
X158166667Y-122538095D01*
X158119048Y-122680952D01*
X157547619Y-123252381D01*
X158166667Y-123252381D01*
X159966667Y-115002381D02*
X159966667Y-115716667D01*
X159919047Y-115859524D01*
X159823809Y-115954762D01*
X159680952Y-116002381D01*
X159585714Y-116002381D01*
X160347619Y-115002381D02*
X160966667Y-115002381D01*
X160633333Y-115383333D01*
X160776191Y-115383333D01*
X160871429Y-115430952D01*
X160919048Y-115478571D01*
X160966667Y-115573810D01*
X160966667Y-115811905D01*
X160919048Y-115907143D01*
X160871429Y-115954762D01*
X160776191Y-116002381D01*
X160490476Y-116002381D01*
X160395238Y-115954762D01*
X160347619Y-115907143D01*
X148033334Y-98302381D02*
X147700000Y-97826190D01*
X147461905Y-98302381D02*
X147461905Y-97302381D01*
X147842858Y-97302381D01*
X147938096Y-97350000D01*
X147985715Y-97397619D01*
X148033334Y-97492857D01*
X148033334Y-97635714D01*
X147985715Y-97730952D01*
X147938096Y-97778571D01*
X147842858Y-97826190D01*
X147461905Y-97826190D01*
X148985715Y-98302381D02*
X148414286Y-98302381D01*
X148700000Y-98302381D02*
X148700000Y-97302381D01*
X148604762Y-97445238D01*
X148509524Y-97540476D01*
X148414286Y-97588095D01*
X146883334Y-104052381D02*
X146550000Y-103576190D01*
X146311905Y-104052381D02*
X146311905Y-103052381D01*
X146692858Y-103052381D01*
X146788096Y-103100000D01*
X146835715Y-103147619D01*
X146883334Y-103242857D01*
X146883334Y-103385714D01*
X146835715Y-103480952D01*
X146788096Y-103528571D01*
X146692858Y-103576190D01*
X146311905Y-103576190D01*
X147264286Y-103147619D02*
X147311905Y-103100000D01*
X147407143Y-103052381D01*
X147645239Y-103052381D01*
X147740477Y-103100000D01*
X147788096Y-103147619D01*
X147835715Y-103242857D01*
X147835715Y-103338095D01*
X147788096Y-103480952D01*
X147216667Y-104052381D01*
X147835715Y-104052381D01*
X146927857Y-109814286D02*
X147899286Y-109814286D01*
X148013571Y-109757143D01*
X148070714Y-109700000D01*
X148127857Y-109585714D01*
X148127857Y-109357143D01*
X148070714Y-109242857D01*
X148013571Y-109185714D01*
X147899286Y-109128571D01*
X146927857Y-109128571D01*
X148127857Y-107928571D02*
X148127857Y-108614286D01*
X148127857Y-108271428D02*
X146927857Y-108271428D01*
X147099286Y-108385714D01*
X147213571Y-108500000D01*
X147270714Y-108614286D01*
X135940476Y-95202381D02*
X135940476Y-94202381D01*
X136273810Y-94916667D01*
X136607143Y-94202381D01*
X136607143Y-95202381D01*
X137035714Y-94297619D02*
X137083333Y-94250000D01*
X137178571Y-94202381D01*
X137416667Y-94202381D01*
X137511905Y-94250000D01*
X137559524Y-94297619D01*
X137607143Y-94392857D01*
X137607143Y-94488095D01*
X137559524Y-94630952D01*
X136988095Y-95202381D01*
X137607143Y-95202381D01*
X135890476Y-124002381D02*
X135890476Y-123002381D01*
X136223810Y-123716667D01*
X136557143Y-123002381D01*
X136557143Y-124002381D01*
X137557143Y-124002381D02*
X136985714Y-124002381D01*
X137271428Y-124002381D02*
X137271428Y-123002381D01*
X137176190Y-123145238D01*
X137080952Y-123240476D01*
X136985714Y-123288095D01*
M02*
