M48
;DRILL file {KiCad 4.0.1-stable} date 3/25/2016 9:26:46 PM
;FORMAT={2:4/ absolute / inch / suppress leading zeros}
FMAT,2
INCH,TZ
T1C0.016
T2C0.039
T3C0.047
T4C0.110
T5C0.076
%
G90
G05
M72
T1
X51654Y-41181
X51772Y-44843
X52008Y-40039
X52141Y-41752
X52185Y-44272
X52441Y-39685
X52815Y-41201
X52815Y-44587
X52894Y-40039
X53150Y-41673
X53209Y-44094
X53878Y-39862
X54134Y-45354
X54547Y-45787
X54803Y-43543
X55000Y-39862
X55768Y-40787
X55839Y-42088
X56062Y-45065
X56890Y-44803
X57362Y-40846
X61102Y-47638
X61181Y-41555
X62008Y-47047
X62008Y-48268
X62913Y-47638
T2
X62000Y-41567
X62000Y-42567
X62000Y-43567
X62000Y-44567
T3
X50580Y-41701
X50580Y-44299
T4
X55910Y-38090
X55910Y-47910
T5
X59340Y-41590
X59340Y-44410
T0
M30
